<?xml version="1.0" encoding="UTF-8" standalone="no"?>
<svg width="825px" height="445px" viewBox="0 0 825 445" version="1.1" xmlns="http://www.w3.org/2000/svg" xmlns:xlink="http://www.w3.org/1999/xlink" xmlns:sketch="http://www.bohemiancoding.com/sketch/ns">
    <title>Dunning Krüger Elovainio</title>
    <description>Created with Sketch (http://www.bohemiancoding.com/sketch)</description>
    <defs></defs>
    <g id="Page-1" stroke="none" stroke-width="1" fill="none" fill-rule="evenodd" sketch:type="MSPage">
        <g id="Dunning-Krüger-Elovainio" sketch:type="MSArtboardGroup">
            <rect id="Rectangle-7" stroke="#66527B" stroke-width="20" fill="#ECEBE9" sketch:type="MSShapeGroup" x="-22" y="0" width="869" height="468"></rect>
            <path d="M386.936,214.891487 C386.282663,214.331485 385.489338,214.051487 384.556,214.051487 C383.398661,214.051487 382.372004,214.368817 381.476,215.003487 C380.579996,215.638157 379.81467,216.39415 379.18,217.271487 C378.54533,218.148825 378.022669,219.016816 377.612,219.875487 C377.201331,220.734158 376.902668,221.387485 376.716,221.835487 L376.604,221.835487 L376.716,214.051487 L376.38,214.051487 L369.044,216.907487 L369.044,217.243487 C369.492002,217.430155 369.939998,217.663486 370.388,217.943487 C370.836002,218.223489 371.227998,218.45682 371.564,218.643487 C371.825335,218.830155 371.984,218.998153 372.04,219.147487 C372.096,219.296821 372.124,219.520819 372.124,219.819487 L372.124,238.747487 C372.124,239.344824 371.816003,239.774153 371.2,240.035487 C370.583997,240.296822 369.846671,240.46482 368.988,240.539487 L368.988,241.099487 L381.532,241.099487 L381.532,240.539487 C381.158665,240.46482 380.720003,240.418154 380.216,240.399487 C379.711997,240.380821 379.226669,240.334154 378.76,240.259487 C378.293331,240.18482 377.873335,240.054155 377.5,239.867487 C377.126665,239.68082 376.884001,239.419489 376.772,239.083487 L376.772,222.955487 C376.996001,222.395485 377.257332,221.80749 377.556,221.191487 C377.854668,220.575484 378.190665,220.024823 378.564,219.539487 C378.937335,219.054152 379.338665,218.652822 379.768,218.335487 C380.197335,218.018152 380.635998,217.859487 381.084,217.859487 C381.606669,217.859487 382.017332,217.962153 382.316,218.167487 C382.614668,218.372822 382.894665,218.606153 383.156,218.867487 C383.417335,219.128822 383.725332,219.362153 384.08,219.567487 C384.434668,219.772822 384.910664,219.875487 385.508,219.875487 C386.14267,219.875487 386.702664,219.604823 387.188,219.063487 C387.673336,218.522151 387.916,217.840825 387.916,217.019487 C387.916,216.160816 387.589337,215.45149 386.936,214.891487 Z" id="Path" fill="#4A4A4A" sketch:type="MSShapeGroup"></path>
            <path d="M150.532,220.379487 C150.532,217.952809 150.224003,215.79683 149.608,213.911487 C148.991997,212.026145 148.170672,210.364828 147.144,208.927487 C146.117328,207.490147 144.91334,206.248826 143.532,205.203487 C142.15066,204.158149 140.676008,203.299491 139.108,202.627487 C137.913327,202.104818 136.700006,201.712822 135.468,201.451487 C134.235994,201.190153 133.004006,201.003488 131.772,200.891487 C130.539994,200.779487 129.308006,200.723487 128.076,200.723487 L124.492,200.723487 C120.310646,200.723487 116.745348,200.732821 113.796,200.751487 C110.846652,200.770154 108.588008,200.779487 107.02,200.779487 L107.02,201.339487 C107.990672,201.451488 108.867996,201.638153 109.652,201.899487 C110.436004,202.160822 111.107997,202.627484 111.668,203.299487 C111.892001,203.560822 112.059999,203.924818 112.172,204.391487 C112.284001,204.858156 112.368,205.380818 112.424,205.959487 C112.48,206.538157 112.508,207.163484 112.508,207.835487 L112.508,209.851487 L112.508,220.771487 L112.508,224.019487 C112.508,225.139493 112.498667,226.231482 112.48,227.295487 C112.461333,228.359493 112.442667,229.339483 112.424,230.235487 C112.405333,231.131492 112.396,231.840818 112.396,232.363487 C112.396,232.960824 112.377334,233.576817 112.34,234.211487 C112.302666,234.846157 112.246667,235.443485 112.172,236.003487 C112.097333,236.56349 112.013334,237.067485 111.92,237.515487 C111.826666,237.96349 111.686668,238.28082 111.5,238.467487 C111.051998,238.990157 110.389338,239.438152 109.512,239.811487 C108.634662,240.184823 107.729338,240.427487 106.796,240.539487 L106.796,241.099487 L127.236,241.099487 C128.953342,241.099487 130.726658,240.978155 132.556,240.735487 C134.385342,240.492819 136.158658,240.072824 137.876,239.475487 C139.593342,238.878151 141.217326,238.075492 142.748,237.067487 C144.278674,236.059482 145.622661,234.790162 146.78,233.259487 C147.937339,231.728813 148.851997,229.899498 149.524,227.771487 C150.196003,225.643477 150.532,223.179501 150.532,220.379487 Z M143.644,220.491487 C143.644,225.382178 142.645343,229.498137 140.648,232.839487 C138.650657,236.180837 135.63602,238.430148 131.604,239.587487 C130.745329,239.848822 129.821338,240.026154 128.832,240.119487 C127.842662,240.212821 126.881338,240.259487 125.948,240.259487 C124.939995,240.259487 123.866672,240.156822 122.728,239.951487 C121.589328,239.746153 120.64667,239.270158 119.9,238.523487 C119.675999,238.299486 119.480001,237.954156 119.312,237.487487 C119.143999,237.020818 119.022667,236.498157 118.948,235.919487 C118.873333,235.340818 118.808,234.74349 118.752,234.127487 C118.696,233.511484 118.668,232.942157 118.668,232.419487 C118.630666,231.187481 118.612,229.60083 118.612,227.659487 L118.612,221.107487 C118.612,216.664798 118.630666,212.83817 118.668,209.627487 C118.705334,206.416805 118.817332,203.89683 119.004,202.067487 C119.265335,201.99282 119.610665,201.936821 120.04,201.899487 C120.469335,201.862154 120.935997,201.815488 121.44,201.759487 C121.944003,201.703487 122.457331,201.666154 122.98,201.647487 C123.502669,201.628821 123.987998,201.619487 124.436,201.619487 C125.742673,201.619487 126.843996,201.666154 127.74,201.759487 C128.636004,201.852821 129.45733,201.974153 130.204,202.123487 C132.145343,202.459489 133.937325,203.206148 135.58,204.363487 C137.222675,205.520826 138.641327,206.930146 139.836,208.591487 C141.030673,210.252829 141.963997,212.110144 142.636,214.163487 C143.308003,216.216831 143.644,218.326143 143.644,220.491487 Z M180.548,239.699487 L180.548,239.363487 C180.099998,239.17682 179.549337,238.934155 178.896,238.635487 C178.242663,238.336819 177.748002,238.094155 177.412,237.907487 C177.150665,237.72082 176.992,237.552821 176.936,237.403487 C176.88,237.254153 176.852,237.030155 176.852,236.731487 L176.852,214.611487 L167.444,214.611487 L167.444,215.227487 C168.265337,215.302154 169.058663,215.395487 169.824,215.507487 C170.589337,215.619488 171.195998,215.76882 171.644,215.955487 C171.868001,216.254155 172.017333,216.692818 172.092,217.271487 C172.166667,217.850157 172.204,218.326152 172.204,218.699487 L172.204,234.659487 C171.867998,235.10749 171.504002,235.536819 171.112,235.947487 C170.719998,236.358156 170.290669,236.722152 169.824,237.039487 C169.357331,237.356822 168.83467,237.618153 168.256,237.823487 C167.67733,238.028822 166.996004,238.131487 166.212,238.131487 C164.158656,238.131487 162.75867,237.543493 162.012,236.367487 C161.26533,235.191481 160.892,233.3715 160.892,230.907487 L160.892,214.611487 L152.212,214.611487 L152.212,215.227487 C152.548002,215.264821 152.902665,215.292821 153.276,215.311487 C153.649335,215.330154 154.003998,215.37682 154.34,215.451487 C154.676002,215.526154 154.983999,215.638153 155.264,215.787487 C155.544001,215.936821 155.758666,216.179486 155.908,216.515487 C155.982667,216.627488 156.029333,216.804819 156.048,217.047487 C156.066667,217.290155 156.094666,217.551486 156.132,217.831487 C156.169334,218.111489 156.188,218.382153 156.188,218.643487 L156.188,219.259487 L156.188,232.923487 C156.188,235.648834 156.757328,237.720814 157.896,239.139487 C159.034672,240.558161 160.798655,241.267487 163.188,241.267487 C164.233339,241.267487 165.213329,241.099489 166.128,240.763487 C167.042671,240.427486 167.87333,239.970157 168.62,239.391487 C169.36667,238.812818 170.038664,238.168824 170.636,237.459487 C171.233336,236.75015 171.737331,236.078157 172.148,235.443487 L172.204,235.499487 L172.204,241.155487 L172.596,241.155487 L180.548,239.699487 Z M210.172,241.099487 L210.172,240.595487 C209.835998,240.558154 209.472002,240.511488 209.08,240.455487 C208.687998,240.399487 208.324002,240.324821 207.988,240.231487 C207.651998,240.138154 207.362668,239.998155 207.12,239.811487 C206.877332,239.62482 206.756,239.400822 206.756,239.139487 L206.756,222.675487 C206.756,220.136808 206.177339,218.064829 205.02,216.459487 C203.862661,214.854146 202.201344,214.051487 200.036,214.051487 C199.027995,214.051487 198.057338,214.247485 197.124,214.639487 C196.190662,215.031489 195.332004,215.526151 194.548,216.123487 C193.763996,216.720824 193.064003,217.383484 192.448,218.111487 C191.831997,218.839491 191.318669,219.520817 190.908,220.155487 L190.796,220.099487 L190.796,214.051487 L190.46,214.051487 L183.124,216.683487 L183.124,217.019487 C183.572002,217.206155 184.019998,217.420819 184.468,217.663487 C184.916002,217.906155 185.307998,218.12082 185.644,218.307487 C185.905335,218.494155 186.064,218.662153 186.12,218.811487 C186.176,218.960821 186.204,219.184819 186.204,219.483487 L186.204,238.747487 C186.204,239.344824 185.896003,239.774153 185.28,240.035487 C184.663997,240.296822 183.926671,240.46482 183.068,240.539487 L183.068,241.099487 L193.876,241.099487 L193.876,240.539487 C193.502665,240.46482 193.148002,240.418154 192.812,240.399487 C192.475998,240.380821 192.177335,240.334154 191.916,240.259487 C191.654665,240.18482 191.430668,240.063488 191.244,239.895487 C191.057332,239.727486 190.926667,239.456823 190.852,239.083487 L190.852,220.715487 C191.860005,219.707482 192.774663,218.942157 193.596,218.419487 C194.417337,217.896818 195.443994,217.635487 196.676,217.635487 C198.617343,217.635487 199.998663,218.298147 200.82,219.623487 C201.641337,220.948827 202.052,222.694143 202.052,224.859487 L202.052,238.971487 C202.052,239.568824 201.753336,239.951486 201.156,240.119487 C200.558664,240.287488 199.756005,240.40882 198.748,240.483487 L198.748,241.099487 L210.172,241.099487 Z M239.348,241.099487 L239.348,240.595487 C239.011998,240.558154 238.648002,240.511488 238.256,240.455487 C237.863998,240.399487 237.500002,240.324821 237.164,240.231487 C236.827998,240.138154 236.538668,239.998155 236.296,239.811487 C236.053332,239.62482 235.932,239.400822 235.932,239.139487 L235.932,222.675487 C235.932,220.136808 235.353339,218.064829 234.196,216.459487 C233.038661,214.854146 231.377344,214.051487 229.212,214.051487 C228.203995,214.051487 227.233338,214.247485 226.3,214.639487 C225.366662,215.031489 224.508004,215.526151 223.724,216.123487 C222.939996,216.720824 222.240003,217.383484 221.624,218.111487 C221.007997,218.839491 220.494669,219.520817 220.084,220.155487 L219.972,220.099487 L219.972,214.051487 L219.636,214.051487 L212.3,216.683487 L212.3,217.019487 C212.748002,217.206155 213.195998,217.420819 213.644,217.663487 C214.092002,217.906155 214.483998,218.12082 214.82,218.307487 C215.081335,218.494155 215.24,218.662153 215.296,218.811487 C215.352,218.960821 215.38,219.184819 215.38,219.483487 L215.38,238.747487 C215.38,239.344824 215.072003,239.774153 214.456,240.035487 C213.839997,240.296822 213.102671,240.46482 212.244,240.539487 L212.244,241.099487 L223.052,241.099487 L223.052,240.539487 C222.678665,240.46482 222.324002,240.418154 221.988,240.399487 C221.651998,240.380821 221.353335,240.334154 221.092,240.259487 C220.830665,240.18482 220.606668,240.063488 220.42,239.895487 C220.233332,239.727486 220.102667,239.456823 220.028,239.083487 L220.028,220.715487 C221.036005,219.707482 221.950663,218.942157 222.772,218.419487 C223.593337,217.896818 224.619994,217.635487 225.852,217.635487 C227.793343,217.635487 229.174663,218.298147 229.996,219.623487 C230.817337,220.948827 231.228,222.694143 231.228,224.859487 L231.228,238.971487 C231.228,239.568824 230.929336,239.951486 230.332,240.119487 C229.734664,240.287488 228.932005,240.40882 227.924,240.483487 L227.924,241.099487 L239.348,241.099487 Z M249.764,205.203487 C249.764,204.344816 249.47467,203.63549 248.896,203.075487 C248.31733,202.515485 247.598671,202.235487 246.74,202.235487 C245.881329,202.235487 245.16267,202.515485 244.584,203.075487 C244.00533,203.63549 243.716,204.344816 243.716,205.203487 C243.716,206.024825 244.014664,206.734151 244.612,207.331487 C245.209336,207.928824 245.918663,208.227487 246.74,208.227487 C247.598671,208.227487 248.31733,207.938157 248.896,207.359487 C249.47467,206.780818 249.764,206.062158 249.764,205.203487 Z M252.9,241.099487 L252.9,240.539487 C252.526665,240.46482 252.144002,240.418154 251.752,240.399487 C251.359998,240.380821 250.996002,240.334154 250.66,240.259487 C250.323998,240.18482 250.034668,240.063488 249.792,239.895487 C249.549332,239.727486 249.390667,239.456823 249.316,239.083487 L249.316,214.051487 L248.98,214.051487 L241.42,216.515487 L241.42,216.851487 C241.942669,217.038155 242.437331,217.243486 242.904,217.467487 C243.370669,217.691488 243.771998,217.915486 244.108,218.139487 C244.369335,218.326155 244.528,218.531486 244.584,218.755487 C244.64,218.979488 244.668,219.240819 244.668,219.539487 L244.668,238.747487 C244.668,239.083489 244.546668,239.363486 244.304,239.587487 C244.061332,239.811488 243.762668,239.98882 243.408,240.119487 C243.053332,240.250155 242.652002,240.343487 242.204,240.399487 C241.755998,240.455488 241.308002,240.502154 240.86,240.539487 L240.86,241.099487 L252.9,241.099487 Z M282.748,241.099487 L282.748,240.595487 C282.411998,240.558154 282.048002,240.511488 281.656,240.455487 C281.263998,240.399487 280.900002,240.324821 280.564,240.231487 C280.227998,240.138154 279.938668,239.998155 279.696,239.811487 C279.453332,239.62482 279.332,239.400822 279.332,239.139487 L279.332,222.675487 C279.332,220.136808 278.753339,218.064829 277.596,216.459487 C276.438661,214.854146 274.777344,214.051487 272.612,214.051487 C271.603995,214.051487 270.633338,214.247485 269.7,214.639487 C268.766662,215.031489 267.908004,215.526151 267.124,216.123487 C266.339996,216.720824 265.640003,217.383484 265.024,218.111487 C264.407997,218.839491 263.894669,219.520817 263.484,220.155487 L263.372,220.099487 L263.372,214.051487 L263.036,214.051487 L255.7,216.683487 L255.7,217.019487 C256.148002,217.206155 256.595998,217.420819 257.044,217.663487 C257.492002,217.906155 257.883998,218.12082 258.22,218.307487 C258.481335,218.494155 258.64,218.662153 258.696,218.811487 C258.752,218.960821 258.78,219.184819 258.78,219.483487 L258.78,238.747487 C258.78,239.344824 258.472003,239.774153 257.856,240.035487 C257.239997,240.296822 256.502671,240.46482 255.644,240.539487 L255.644,241.099487 L266.452,241.099487 L266.452,240.539487 C266.078665,240.46482 265.724002,240.418154 265.388,240.399487 C265.051998,240.380821 264.753335,240.334154 264.492,240.259487 C264.230665,240.18482 264.006668,240.063488 263.82,239.895487 C263.633332,239.727486 263.502667,239.456823 263.428,239.083487 L263.428,220.715487 C264.436005,219.707482 265.350663,218.942157 266.172,218.419487 C266.993337,217.896818 268.019994,217.635487 269.252,217.635487 C271.193343,217.635487 272.574663,218.298147 273.396,219.623487 C274.217337,220.948827 274.628,222.694143 274.628,224.859487 L274.628,238.971487 C274.628,239.568824 274.329336,239.951486 273.732,240.119487 C273.134664,240.287488 272.332005,240.40882 271.324,240.483487 L271.324,241.099487 L282.748,241.099487 Z M313.212,217.131487 C313.212,216.496817 313.006669,215.95549 312.596,215.507487 C312.185331,215.059485 311.66267,214.835487 311.028,214.835487 C310.579998,214.835487 310.188002,214.90082 309.852,215.031487 C309.515998,215.162155 309.198668,215.311486 308.9,215.479487 C308.601332,215.647488 308.274668,215.79682 307.92,215.927487 C307.565332,216.058155 307.164002,216.123487 306.716,216.123487 C306.267998,216.123487 305.885335,216.104821 305.568,216.067487 C305.250665,216.030154 304.868002,215.936821 304.42,215.787487 C303.225327,215.152817 302.077339,214.704822 300.976,214.443487 C299.874661,214.182153 298.614674,214.051487 297.196,214.051487 C295.627992,214.051487 294.18134,214.275485 292.856,214.723487 C291.53066,215.17149 290.382672,215.77815 289.412,216.543487 C288.441328,217.308824 287.685336,218.214149 287.144,219.259487 C286.602664,220.304826 286.332,221.424815 286.332,222.619487 C286.332,224.523497 286.789329,226.091481 287.704,227.323487 C288.618671,228.555493 289.897325,229.488817 291.54,230.123487 L291.54,230.291487 C290.606662,230.403488 289.738671,230.636819 288.936,230.991487 C288.133329,231.346156 287.433336,231.784818 286.836,232.307487 C286.238664,232.830157 285.772002,233.408817 285.436,234.043487 C285.099998,234.678157 284.932,235.35015 284.932,236.059487 C284.932,237.478161 285.445328,238.616816 286.472,239.475487 C287.498672,240.334158 288.96399,240.875486 290.868,241.099487 L290.868,241.211487 C290.083996,241.696823 289.290671,242.191485 288.488,242.695487 C287.685329,243.19949 286.957337,243.740818 286.304,244.319487 C285.650663,244.898157 285.109335,245.504817 284.68,246.139487 C284.250665,246.774157 284.036,247.483483 284.036,248.267487 C284.036,250.395498 285.165322,252.066148 287.424,253.279487 C289.682678,254.492827 292.846646,255.099487 296.916,255.099487 C299.044011,255.099487 300.994658,254.810157 302.768,254.231487 C304.541342,253.652818 306.081327,252.859492 307.388,251.851487 C308.694673,250.843482 309.711996,249.676827 310.44,248.351487 C311.168004,247.026147 311.532,245.635495 311.532,244.179487 C311.532,243.059482 311.336002,242.042159 310.944,241.127487 C310.551998,240.212816 309.98267,239.400824 309.236,238.691487 C308.48933,237.98215 307.593339,237.422156 306.548,237.011487 C305.502661,236.600819 304.326673,236.395487 303.02,236.395487 L294.06,236.395487 C293.42533,236.395487 292.772003,236.358154 292.1,236.283487 C291.427997,236.20882 290.812003,236.059488 290.252,235.835487 C289.691997,235.611486 289.225335,235.303489 288.852,234.911487 C288.478665,234.519485 288.292,234.024824 288.292,233.427487 C288.292,232.680817 288.646663,232.064823 289.356,231.579487 C290.065337,231.094152 291.017327,230.814154 292.212,230.739487 C292.95867,230.739487 293.602664,230.77682 294.144,230.851487 C294.685336,230.926154 295.217331,230.963487 295.74,230.963487 C299.361351,230.963487 302.198656,230.226161 304.252,228.751487 C306.305344,227.276813 307.332,225.064835 307.332,222.115487 C307.332,220.920815 307.136002,219.950158 306.744,219.203487 C306.351998,218.456817 305.876003,217.654158 305.316,216.795487 L305.54,216.571487 C305.988002,216.832822 306.491997,217.122152 307.052,217.439487 C307.612003,217.756822 308.162664,218.046153 308.704,218.307487 C309.245336,218.568822 309.739998,218.79282 310.188,218.979487 C310.636002,219.166155 310.971999,219.259487 311.196,219.259487 C311.756003,219.259487 312.231998,219.044823 312.624,218.615487 C313.016002,218.186152 313.212,217.69149 313.212,217.131487 Z M302.852,222.115487 C302.852,223.160826 302.721335,224.159483 302.46,225.111487 C302.198665,226.063492 301.806669,226.912817 301.284,227.659487 C300.761331,228.406158 300.117337,229.003485 299.352,229.451487 C298.586663,229.89949 297.700005,230.123487 296.692,230.123487 C295.049325,230.123487 293.658672,229.442161 292.52,228.079487 C291.381328,226.716814 290.812,224.915499 290.812,222.675487 C290.812,221.704816 290.942665,220.752825 291.204,219.819487 C291.465335,218.886149 291.847997,218.055491 292.352,217.327487 C292.856003,216.599484 293.48133,216.020823 294.228,215.591487 C294.97467,215.162152 295.814662,214.947487 296.748,214.947487 C297.756005,214.947487 298.642663,215.143485 299.408,215.535487 C300.173337,215.927489 300.807997,216.450151 301.312,217.103487 C301.816003,217.756824 302.198665,218.512816 302.46,219.371487 C302.721335,220.230158 302.852,221.144816 302.852,222.115487 Z M307.78,246.475487 C307.78,248.080829 307.285338,249.462148 306.296,250.619487 C305.306662,251.776826 304.158673,252.616818 302.852,253.139487 C302.21733,253.363488 301.498671,253.531487 300.696,253.643487 C299.893329,253.755488 298.932006,253.811487 297.812,253.811487 C296.878662,253.811487 295.861339,253.662155 294.76,253.363487 C293.658661,253.064819 292.622672,252.60749 291.652,251.991487 C290.681328,251.375484 289.869337,250.619492 289.216,249.723487 C288.562663,248.827483 288.236,247.78216 288.236,246.587487 C288.236,245.430148 288.571997,244.366159 289.244,243.395487 C289.916003,242.424816 291.129325,241.71549 292.884,241.267487 C293.406669,241.19282 294.078663,241.118154 294.9,241.043487 C295.721337,240.96882 296.523996,240.931487 297.308,240.931487 C299.473344,240.931487 301.171994,241.015486 302.404,241.183487 C303.636006,241.351488 304.662663,241.640819 305.484,242.051487 C306.11867,242.350155 306.659998,242.891483 307.108,243.675487 C307.556002,244.459491 307.78,245.392815 307.78,246.475487 Z M369.492,241.099487 L369.492,240.539487 C368.446661,240.46482 367.504004,240.334155 366.664,240.147487 C365.823996,239.96082 365.161336,239.774155 364.676,239.587487 C364.563999,239.550154 364.340002,239.400822 364.004,239.139487 C363.667998,238.878153 363.276002,238.570156 362.828,238.215487 C362.379998,237.860819 361.913336,237.45949 361.428,237.011487 C360.942664,236.563485 360.513335,236.11549 360.14,235.667487 C358.571992,233.912812 356.938675,232.083497 355.24,230.179487 C353.541325,228.275478 351.945341,226.483496 350.452,224.803487 C348.958659,223.123479 347.670672,221.65816 346.588,220.407487 C345.505328,219.156814 344.814668,218.344823 344.516,217.971487 C345.15067,217.299484 345.850663,216.580824 346.616,215.815487 C347.381337,215.05015 348.165329,214.256825 348.968,213.435487 C349.770671,212.61415 350.582663,211.792825 351.404,210.971487 C352.225337,210.15015 353.027996,209.384824 353.812,208.675487 C355.82801,206.808811 357.806657,205.166161 359.748,203.747487 C361.689343,202.328814 363.61199,201.526155 365.516,201.339487 L365.516,200.779487 L350.508,200.779487 L350.508,201.339487 C351.478672,201.488821 352.33733,201.806152 353.084,202.291487 C353.83067,202.776823 354.204,203.560815 354.204,204.643487 C354.204,205.278157 353.952003,205.987483 353.448,206.771487 C352.943997,207.555491 352.37467,208.320817 351.74,209.067487 C350.843996,210.038159 349.780006,211.176814 348.548,212.483487 C347.315994,213.790161 346.074673,215.059481 344.824,216.291487 C343.573327,217.523493 342.378672,218.634149 341.24,219.623487 C340.101328,220.612826 339.196003,221.312819 338.524,221.723487 L338.524,216.571487 L338.524,213.043487 C338.524,212.072816 338.533333,211.214158 338.552,210.467487 C338.570667,209.720817 338.598666,208.918158 338.636,208.059487 C338.673334,206.491479 338.869332,205.278158 339.224,204.419487 C339.578668,203.560816 340.017331,202.916823 340.54,202.487487 C341.062669,202.058152 341.659997,201.778155 342.332,201.647487 C343.004003,201.51682 343.694663,201.414154 344.404,201.339487 L344.404,200.779487 L327.044,200.779487 L327.044,201.339487 C328.014672,201.451488 328.87333,201.656819 329.62,201.955487 C330.36667,202.254155 331.001331,202.720817 331.524,203.355487 C331.934669,203.878157 332.186666,204.736815 332.28,205.931487 C332.373334,207.12616 332.42,208.432814 332.42,209.851487 L332.42,220.771487 L332.42,224.019487 L332.42,227.323487 C332.42,228.368826 332.410667,229.339483 332.392,230.235487 C332.373333,231.131492 332.364,231.840818 332.364,232.363487 C332.364,232.960824 332.354667,233.586151 332.336,234.239487 C332.317333,234.892824 332.28,235.508818 332.224,236.087487 C332.168,236.666157 332.084001,237.179485 331.972,237.627487 C331.859999,238.07549 331.710668,238.411486 331.524,238.635487 C331.075998,239.158157 330.422671,239.568819 329.564,239.867487 C328.705329,240.166155 327.809338,240.390153 326.876,240.539487 L326.876,241.099487 L344.852,241.099487 L344.852,240.539487 C344.478665,240.502154 344.040003,240.436821 343.536,240.343487 C343.031997,240.250154 342.518669,240.119488 341.996,239.951487 C341.473331,239.783486 340.988002,239.568822 340.54,239.307487 C340.091998,239.046153 339.737335,238.728823 339.476,238.355487 C339.102665,237.870152 338.860001,237.160825 338.748,236.227487 C338.635999,235.294149 338.561334,234.286159 338.524,233.203487 C338.486666,231.971481 338.468,230.496829 338.468,228.779487 L338.468,223.235487 C338.580001,222.936819 338.682666,222.722155 338.776,222.591487 C338.869334,222.46082 339.065332,222.395487 339.364,222.395487 C339.625335,222.395487 339.933332,222.526153 340.288,222.787487 C340.642668,223.048822 341.305328,223.720815 342.276,224.803487 C344.590678,227.342167 346.821323,229.852808 348.968,232.335487 C351.114677,234.818166 353.382655,237.440807 355.772,240.203487 C355.996001,240.464822 356.201332,240.66082 356.388,240.791487 C356.574668,240.922155 356.742666,241.02482 356.892,241.099487 L369.492,241.099487 Z M408.58,207.499487 C408.58,206.79015 408.328003,206.18349 407.824,205.679487 C407.319997,205.175485 406.713337,204.923487 406.004,204.923487 C405.294663,204.923487 404.688003,205.175485 404.184,205.679487 C403.679997,206.18349 403.428,206.79015 403.428,207.499487 C403.428,208.208824 403.679997,208.815485 404.184,209.319487 C404.688003,209.82349 405.294663,210.075487 406.004,210.075487 C406.713337,210.075487 407.319997,209.82349 407.824,209.319487 C408.328003,208.815485 408.58,208.208824 408.58,207.499487 Z M399.228,207.499487 C399.228,206.79015 398.976003,206.18349 398.472,205.679487 C397.967997,205.175485 397.361337,204.923487 396.652,204.923487 C395.942663,204.923487 395.336003,205.175485 394.832,205.679487 C394.327997,206.18349 394.076,206.79015 394.076,207.499487 C394.076,208.208824 394.327997,208.815485 394.832,209.319487 C395.336003,209.82349 395.942663,210.075487 396.652,210.075487 C397.361337,210.075487 397.967997,209.82349 398.472,209.319487 C398.976003,208.815485 399.228,208.208824 399.228,207.499487 Z M415.692,239.699487 L415.692,239.363487 C415.243998,239.17682 414.693337,238.934155 414.04,238.635487 C413.386663,238.336819 412.892002,238.094155 412.556,237.907487 C412.294665,237.72082 412.136,237.552821 412.08,237.403487 C412.024,237.254153 411.996,237.030155 411.996,236.731487 L411.996,214.611487 L402.588,214.611487 L402.588,215.227487 C403.409337,215.302154 404.202663,215.395487 404.968,215.507487 C405.733337,215.619488 406.339998,215.76882 406.788,215.955487 C407.012001,216.254155 407.161333,216.692818 407.236,217.271487 C407.310667,217.850157 407.348,218.326152 407.348,218.699487 L407.348,234.659487 C407.011998,235.10749 406.648002,235.536819 406.256,235.947487 C405.863998,236.358156 405.434669,236.722152 404.968,237.039487 C404.501331,237.356822 403.97867,237.618153 403.4,237.823487 C402.82133,238.028822 402.140004,238.131487 401.356,238.131487 C399.302656,238.131487 397.90267,237.543493 397.156,236.367487 C396.40933,235.191481 396.036,233.3715 396.036,230.907487 L396.036,214.611487 L387.356,214.611487 L387.356,215.227487 C387.692002,215.264821 388.046665,215.292821 388.42,215.311487 C388.793335,215.330154 389.147998,215.37682 389.484,215.451487 C389.820002,215.526154 390.127999,215.638153 390.408,215.787487 C390.688001,215.936821 390.902666,216.179486 391.052,216.515487 C391.126667,216.627488 391.173333,216.804819 391.192,217.047487 C391.210667,217.290155 391.238666,217.551486 391.276,217.831487 C391.313334,218.111489 391.332,218.382153 391.332,218.643487 L391.332,219.259487 L391.332,232.923487 C391.332,235.648834 391.901328,237.720814 393.04,239.139487 C394.178672,240.558161 395.942655,241.267487 398.332,241.267487 C399.377339,241.267487 400.357329,241.099489 401.272,240.763487 C402.186671,240.427486 403.01733,239.970157 403.764,239.391487 C404.51067,238.812818 405.182664,238.168824 405.78,237.459487 C406.377336,236.75015 406.881331,236.078157 407.292,235.443487 L407.348,235.499487 L407.348,241.155487 L407.74,241.155487 L415.692,239.699487 Z M446.604,217.131487 C446.604,216.496817 446.398669,215.95549 445.988,215.507487 C445.577331,215.059485 445.05467,214.835487 444.42,214.835487 C443.971998,214.835487 443.580002,214.90082 443.244,215.031487 C442.907998,215.162155 442.590668,215.311486 442.292,215.479487 C441.993332,215.647488 441.666668,215.79682 441.312,215.927487 C440.957332,216.058155 440.556002,216.123487 440.108,216.123487 C439.659998,216.123487 439.277335,216.104821 438.96,216.067487 C438.642665,216.030154 438.260002,215.936821 437.812,215.787487 C436.617327,215.152817 435.469339,214.704822 434.368,214.443487 C433.266661,214.182153 432.006674,214.051487 430.588,214.051487 C429.019992,214.051487 427.57334,214.275485 426.248,214.723487 C424.92266,215.17149 423.774672,215.77815 422.804,216.543487 C421.833328,217.308824 421.077336,218.214149 420.536,219.259487 C419.994664,220.304826 419.724,221.424815 419.724,222.619487 C419.724,224.523497 420.181329,226.091481 421.096,227.323487 C422.010671,228.555493 423.289325,229.488817 424.932,230.123487 L424.932,230.291487 C423.998662,230.403488 423.130671,230.636819 422.328,230.991487 C421.525329,231.346156 420.825336,231.784818 420.228,232.307487 C419.630664,232.830157 419.164002,233.408817 418.828,234.043487 C418.491998,234.678157 418.324,235.35015 418.324,236.059487 C418.324,237.478161 418.837328,238.616816 419.864,239.475487 C420.890672,240.334158 422.35599,240.875486 424.26,241.099487 L424.26,241.211487 C423.475996,241.696823 422.682671,242.191485 421.88,242.695487 C421.077329,243.19949 420.349337,243.740818 419.696,244.319487 C419.042663,244.898157 418.501335,245.504817 418.072,246.139487 C417.642665,246.774157 417.428,247.483483 417.428,248.267487 C417.428,250.395498 418.557322,252.066148 420.816,253.279487 C423.074678,254.492827 426.238646,255.099487 430.308,255.099487 C432.436011,255.099487 434.386658,254.810157 436.16,254.231487 C437.933342,253.652818 439.473327,252.859492 440.78,251.851487 C442.086673,250.843482 443.103996,249.676827 443.832,248.351487 C444.560004,247.026147 444.924,245.635495 444.924,244.179487 C444.924,243.059482 444.728002,242.042159 444.336,241.127487 C443.943998,240.212816 443.37467,239.400824 442.628,238.691487 C441.88133,237.98215 440.985339,237.422156 439.94,237.011487 C438.894661,236.600819 437.718673,236.395487 436.412,236.395487 L427.452,236.395487 C426.81733,236.395487 426.164003,236.358154 425.492,236.283487 C424.819997,236.20882 424.204003,236.059488 423.644,235.835487 C423.083997,235.611486 422.617335,235.303489 422.244,234.911487 C421.870665,234.519485 421.684,234.024824 421.684,233.427487 C421.684,232.680817 422.038663,232.064823 422.748,231.579487 C423.457337,231.094152 424.409327,230.814154 425.604,230.739487 C426.35067,230.739487 426.994664,230.77682 427.536,230.851487 C428.077336,230.926154 428.609331,230.963487 429.132,230.963487 C432.753351,230.963487 435.590656,230.226161 437.644,228.751487 C439.697344,227.276813 440.724,225.064835 440.724,222.115487 C440.724,220.920815 440.528002,219.950158 440.136,219.203487 C439.743998,218.456817 439.268003,217.654158 438.708,216.795487 L438.932,216.571487 C439.380002,216.832822 439.883997,217.122152 440.444,217.439487 C441.004003,217.756822 441.554664,218.046153 442.096,218.307487 C442.637336,218.568822 443.131998,218.79282 443.58,218.979487 C444.028002,219.166155 444.363999,219.259487 444.588,219.259487 C445.148003,219.259487 445.623998,219.044823 446.016,218.615487 C446.408002,218.186152 446.604,217.69149 446.604,217.131487 Z M436.244,222.115487 C436.244,223.160826 436.113335,224.159483 435.852,225.111487 C435.590665,226.063492 435.198669,226.912817 434.676,227.659487 C434.153331,228.406158 433.509337,229.003485 432.744,229.451487 C431.978663,229.89949 431.092005,230.123487 430.084,230.123487 C428.441325,230.123487 427.050672,229.442161 425.912,228.079487 C424.773328,226.716814 424.204,224.915499 424.204,222.675487 C424.204,221.704816 424.334665,220.752825 424.596,219.819487 C424.857335,218.886149 425.239997,218.055491 425.744,217.327487 C426.248003,216.599484 426.87333,216.020823 427.62,215.591487 C428.36667,215.162152 429.206662,214.947487 430.14,214.947487 C431.148005,214.947487 432.034663,215.143485 432.8,215.535487 C433.565337,215.927489 434.199997,216.450151 434.704,217.103487 C435.208003,217.756824 435.590665,218.512816 435.852,219.371487 C436.113335,220.230158 436.244,221.144816 436.244,222.115487 Z M441.172,246.475487 C441.172,248.080829 440.677338,249.462148 439.688,250.619487 C438.698662,251.776826 437.550673,252.616818 436.244,253.139487 C435.60933,253.363488 434.890671,253.531487 434.088,253.643487 C433.285329,253.755488 432.324006,253.811487 431.204,253.811487 C430.270662,253.811487 429.253339,253.662155 428.152,253.363487 C427.050661,253.064819 426.014672,252.60749 425.044,251.991487 C424.073328,251.375484 423.261337,250.619492 422.608,249.723487 C421.954663,248.827483 421.628,247.78216 421.628,246.587487 C421.628,245.430148 421.963997,244.366159 422.636,243.395487 C423.308003,242.424816 424.521325,241.71549 426.276,241.267487 C426.798669,241.19282 427.470663,241.118154 428.292,241.043487 C429.113337,240.96882 429.915996,240.931487 430.7,240.931487 C432.865344,240.931487 434.563994,241.015486 435.796,241.183487 C437.028006,241.351488 438.054663,241.640819 438.876,242.051487 C439.51067,242.350155 440.051998,242.891483 440.5,243.675487 C440.948002,244.459491 441.172,245.392815 441.172,246.475487 Z M470.292,232.587487 L469.844,232.475487 C469.395998,233.856828 468.472007,235.023483 467.072,235.975487 C465.671993,236.927492 464.038676,237.403487 462.172,237.403487 C460.454658,237.403487 458.942673,237.086157 457.636,236.451487 C456.329327,235.816817 455.246671,234.948826 454.388,233.847487 C453.529329,232.746148 452.876002,231.476828 452.428,230.039487 C451.979998,228.602147 451.756,227.099495 451.756,225.531487 C451.756,225.120819 451.774666,224.719489 451.812,224.327487 C451.849334,223.935485 451.868,223.590155 451.868,223.291487 L469.844,223.291487 C469.731999,221.723479 469.377336,220.360826 468.78,219.203487 C468.182664,218.046148 467.408005,217.084824 466.456,216.319487 C465.503995,215.55415 464.384006,214.984823 463.096,214.611487 C461.807994,214.238152 460.436007,214.051487 458.98,214.051487 C457.187991,214.051487 455.554674,214.43415 454.08,215.199487 C452.605326,215.964824 451.354672,216.963481 450.328,218.195487 C449.301328,219.427493 448.508003,220.818146 447.948,222.367487 C447.387997,223.916828 447.108,225.475479 447.108,227.043487 C447.108,228.98483 447.406664,230.823479 448.004,232.559487 C448.601336,234.295496 449.450661,235.807481 450.552,237.095487 C451.653339,238.383494 452.987992,239.38215 454.556,240.091487 C456.124008,240.800824 457.85999,241.155487 459.764,241.155487 C461.294674,241.155487 462.685327,240.87549 463.936,240.315487 C465.186673,239.755485 466.259996,239.046158 467.156,238.187487 C468.052004,237.328816 468.761331,236.386159 469.284,235.359487 C469.806669,234.332816 470.142666,233.408825 470.292,232.587487 Z M464.3,220.043487 C464.3,220.566157 464.234667,220.958153 464.104,221.219487 C463.973333,221.480822 463.777335,221.760819 463.516,222.059487 C463.142665,222.208821 462.713336,222.302154 462.228,222.339487 C461.742664,222.376821 461.220003,222.395487 460.66,222.395487 C459.801329,222.395487 459.017337,222.404821 458.308,222.423487 C457.598663,222.442154 456.917337,222.460821 456.264,222.479487 C455.610663,222.498154 454.948003,222.507487 454.276,222.507487 L451.98,222.507487 C452.054667,222.059485 452.259998,221.415492 452.596,220.575487 C452.932002,219.735483 453.407997,218.904825 454.024,218.083487 C454.640003,217.26215 455.367996,216.54349 456.208,215.927487 C457.048004,215.311484 457.990661,215.003487 459.036,215.003487 C460.641341,215.003487 461.919995,215.498149 462.872,216.487487 C463.824005,217.476826 464.3,218.662147 464.3,220.043487 Z M490.956,217.019487 C490.956,216.160816 490.629337,215.45149 489.976,214.891487 C489.322663,214.331485 488.529338,214.051487 487.596,214.051487 C486.438661,214.051487 485.412004,214.368817 484.516,215.003487 C483.619996,215.638157 482.85467,216.39415 482.22,217.271487 C481.58533,218.148825 481.062669,219.016816 480.652,219.875487 C480.241331,220.734158 479.942668,221.387485 479.756,221.835487 L479.644,221.835487 L479.756,214.051487 L479.42,214.051487 L472.084,216.907487 L472.084,217.243487 C472.532002,217.430155 472.979998,217.663486 473.428,217.943487 C473.876002,218.223489 474.267998,218.45682 474.604,218.643487 C474.865335,218.830155 475.024,218.998153 475.08,219.147487 C475.136,219.296821 475.164,219.520819 475.164,219.819487 L475.164,238.747487 C475.164,239.344824 474.856003,239.774153 474.24,240.035487 C473.623997,240.296822 472.886671,240.46482 472.028,240.539487 L472.028,241.099487 L484.572,241.099487 L484.572,240.539487 C484.198665,240.46482 483.760003,240.418154 483.256,240.399487 C482.751997,240.380821 482.266669,240.334154 481.8,240.259487 C481.333331,240.18482 480.913335,240.054155 480.54,239.867487 C480.166665,239.68082 479.924001,239.419489 479.812,239.083487 L479.812,222.955487 C480.036001,222.395485 480.297332,221.80749 480.596,221.191487 C480.894668,220.575484 481.230665,220.024823 481.604,219.539487 C481.977335,219.054152 482.378665,218.652822 482.808,218.335487 C483.237335,218.018152 483.675998,217.859487 484.124,217.859487 C484.646669,217.859487 485.057332,217.962153 485.356,218.167487 C485.654668,218.372822 485.934665,218.606153 486.196,218.867487 C486.457335,219.128822 486.765332,219.362153 487.12,219.567487 C487.474668,219.772822 487.950664,219.875487 488.548,219.875487 C489.18267,219.875487 489.742664,219.604823 490.228,219.063487 C490.713336,218.522151 490.956,217.840825 490.956,217.019487 Z M541.524,230.403487 L540.908,230.235487 C539.974662,231.840829 539.069338,233.212815 538.192,234.351487 C537.314662,235.49016 536.409338,236.451483 535.476,237.235487 C534.542662,238.019491 533.572005,238.626152 532.564,239.055487 C531.555995,239.484823 530.454673,239.774153 529.26,239.923487 C528.177328,240.072821 527.141338,240.166154 526.152,240.203487 C525.162662,240.240821 524.35067,240.259487 523.716,240.259487 C522.222659,240.259487 520.84134,240.147488 519.572,239.923487 C518.30266,239.699486 517.500002,239.326157 517.164,238.803487 C516.827998,238.280818 516.613334,237.487493 516.52,236.423487 C516.426666,235.359482 516.361334,234.23016 516.324,233.035487 C516.324,232.662152 516.314667,232.204823 516.296,231.663487 C516.277333,231.122151 516.268,230.552824 516.268,229.955487 L516.268,228.051487 L516.268,226.371487 L516.268,223.235487 C516.268,222.227482 516.305333,221.462157 516.38,220.939487 L517.836,220.939487 L518.956,220.939487 C519.329335,220.939487 519.702665,220.948821 520.076,220.967487 C520.449335,220.986154 520.915997,221.014154 521.476,221.051487 C522.596006,221.126154 523.575996,221.331486 524.416,221.667487 C525.256004,222.003489 525.974664,222.432818 526.572,222.955487 C527.244003,223.590157 527.887997,224.542148 528.504,225.811487 C529.120003,227.080827 529.577332,228.312815 529.876,229.507487 L530.548,229.507487 L530.548,211.867487 L529.876,211.867487 C529.651999,212.912826 529.400001,213.855483 529.12,214.695487 C528.839999,215.535492 528.466669,216.272817 528,216.907487 C527.533331,217.542157 526.92667,218.083485 526.18,218.531487 C525.43333,218.97949 524.500006,219.334153 523.38,219.595487 C522.894664,219.707488 522.288004,219.791487 521.56,219.847487 C520.831996,219.903488 520.104004,219.950154 519.376,219.987487 C518.647996,220.024821 518.004003,220.043487 517.444,220.043487 L516.324,220.043487 L516.324,219.427487 C516.324,219.091486 516.314667,218.61549 516.296,217.999487 C516.277333,217.383484 516.268,216.590159 516.268,215.619487 L516.268,212.035487 C516.268,209.571475 516.296,207.406163 516.352,205.539487 C516.408,203.672811 516.473333,202.440824 516.548,201.843487 C516.921335,201.76882 517.527996,201.703488 518.368,201.647487 C519.208004,201.591487 520.019996,201.563487 520.804,201.563487 C523.268012,201.563487 525.358658,201.675486 527.076,201.899487 C528.793342,202.123488 529.96933,202.384819 530.604,202.683487 C533.25468,203.990161 536.091985,206.528802 539.116,210.299487 L539.676,210.019487 L535.868,200.779487 L504.956,200.779487 L504.956,201.339487 C505.964005,201.488821 506.78533,201.647486 507.42,201.815487 C508.05467,201.983488 508.651997,202.366151 509.212,202.963487 C509.436001,203.187488 509.613333,203.551485 509.744,204.055487 C509.874667,204.55949 509.968,205.128817 510.024,205.763487 C510.08,206.398157 510.117333,207.07015 510.136,207.779487 C510.154667,208.488824 510.164,209.179484 510.164,209.851487 L510.164,220.771487 L510.164,224.019487 C510.164,225.139493 510.154667,226.231482 510.136,227.295487 C510.117333,228.359493 510.098667,229.339483 510.08,230.235487 C510.061333,231.131492 510.052,231.840818 510.052,232.363487 C510.052,232.960824 510.033334,233.567484 509.996,234.183487 C509.958666,234.79949 509.893334,235.387485 509.8,235.947487 C509.706666,236.50749 509.604001,237.002152 509.492,237.431487 C509.379999,237.860823 509.230668,238.187486 509.044,238.411487 C508.521331,239.008824 507.858671,239.475486 507.056,239.811487 C506.253329,240.147489 505.385338,240.390153 504.452,240.539487 L504.452,241.099487 L538.724,241.099487 L541.524,230.403487 Z M555.412,241.099487 L555.412,240.483487 C554.702663,240.40882 554.086669,240.362154 553.564,240.343487 C553.041331,240.324821 552.612002,240.278154 552.276,240.203487 C551.939998,240.12882 551.688001,239.998155 551.52,239.811487 C551.351999,239.62482 551.268,239.344823 551.268,238.971487 L551.268,200.611487 L550.876,200.611487 L542.868,203.243487 L542.868,203.579487 C543.316002,203.766155 543.875997,204.055485 544.548,204.447487 C545.220003,204.839489 545.723998,205.12882 546.06,205.315487 C546.321335,205.502155 546.48,205.670153 546.536,205.819487 C546.592,205.968821 546.62,206.192819 546.62,206.491487 L546.62,238.691487 C546.62,239.288824 546.340003,239.708819 545.78,239.951487 C545.219997,240.194155 544.081342,240.371487 542.364,240.483487 L542.364,241.099487 L555.412,241.099487 Z M583.3,227.379487 C583.3,225.139476 582.898671,223.188829 582.096,221.527487 C581.293329,219.866146 580.266673,218.484826 579.016,217.383487 C577.765327,216.282148 576.374674,215.45149 574.844,214.891487 C573.313326,214.331485 571.801341,214.051487 570.308,214.051487 C568.29199,214.051487 566.453342,214.424817 564.792,215.171487 C563.130658,215.918158 561.712006,216.907481 560.536,218.139487 C559.359994,219.371493 558.445337,220.790146 557.792,222.395487 C557.138663,224.000829 556.812,225.662145 556.812,227.379487 C556.812,229.768833 557.231996,231.850145 558.072,233.623487 C558.912004,235.39683 559.99466,236.852815 561.32,237.991487 C562.64534,239.13016 564.091992,239.960818 565.66,240.483487 C567.228008,241.006157 568.739993,241.267487 570.196,241.267487 C571.950675,241.267487 573.621325,240.912824 575.208,240.203487 C576.794675,239.49415 578.185327,238.504827 579.38,237.235487 C580.574673,235.966148 581.526663,234.482162 582.236,232.783487 C582.945337,231.084812 583.3,229.283497 583.3,227.379487 Z M578.092,227.323487 C578.092,228.630161 577.952001,230.048813 577.672,231.579487 C577.391999,233.110162 576.944003,234.538147 576.328,235.863487 C575.711997,237.188827 574.909338,238.29015 573.92,239.167487 C572.930662,240.044825 571.708007,240.483487 570.252,240.483487 C568.795993,240.483487 567.545339,240.138157 566.5,239.447487 C565.454661,238.756817 564.596003,237.823493 563.924,236.647487 C563.251997,235.471481 562.766668,234.118162 562.468,232.587487 C562.169332,231.056813 562.02,229.432829 562.02,227.715487 C562.02,226.147479 562.197332,224.607495 562.552,223.095487 C562.906668,221.58348 563.42933,220.220827 564.12,219.007487 C564.81067,217.794148 565.641328,216.814158 566.612,216.067487 C567.582672,215.320817 568.683994,214.947487 569.916,214.947487 C571.446674,214.947487 572.734661,215.348817 573.78,216.151487 C574.825339,216.954158 575.66533,217.971481 576.3,219.203487 C576.93467,220.435493 577.391999,221.77948 577.672,223.235487 C577.952001,224.691495 578.092,226.054148 578.092,227.323487 Z M611.972,215.227487 L611.972,214.611487 L601.108,214.611487 L601.108,215.171487 C601.444002,215.208821 601.835998,215.227487 602.284,215.227487 C602.732002,215.227487 603.161331,215.283487 603.572,215.395487 C603.982669,215.507488 604.327999,215.703486 604.608,215.983487 C604.888001,216.263489 605.028,216.664818 605.028,217.187487 C605.028,217.523489 604.794669,218.382147 604.328,219.763487 C603.861331,221.144828 603.292003,222.750145 602.62,224.579487 C601.947997,226.40883 601.23867,228.275478 600.492,230.179487 C599.74533,232.083497 599.092003,233.726147 598.532,235.107487 C598.195998,234.211483 597.785336,233.16616 597.3,231.971487 C596.814664,230.776815 596.320003,229.544827 595.816,228.275487 C595.311997,227.006148 594.817336,225.736827 594.332,224.467487 C593.846664,223.198148 593.408002,222.040826 593.016,220.995487 C592.623998,219.950149 592.306668,219.072824 592.064,218.363487 C591.821332,217.65415 591.7,217.206155 591.7,217.019487 C591.7,216.608819 591.858665,216.300822 592.176,216.095487 C592.493335,215.890153 592.875998,215.731488 593.324,215.619487 C593.772002,215.507487 594.247997,215.423488 594.752,215.367487 C595.256003,215.311487 595.675998,215.264821 596.012,215.227487 L596.012,214.611487 L582.516,214.611487 L582.516,215.227487 C583.748006,215.302154 584.597331,215.479486 585.064,215.759487 C585.530669,216.039489 585.875999,216.291486 586.1,216.515487 C586.286668,216.851489 586.491999,217.280818 586.716,217.803487 C586.940001,218.326157 587.163999,218.867485 587.388,219.427487 C587.612001,219.98749 587.826666,220.519485 588.032,221.023487 C588.237334,221.52749 588.395999,221.928819 588.508,222.227487 C589.292004,224.280831 590.00133,226.128812 590.636,227.771487 C591.27067,229.414162 591.867997,230.954147 592.428,232.391487 C592.988003,233.828828 593.529331,235.228814 594.052,236.591487 C594.574669,237.954161 595.134664,239.400813 595.732,240.931487 C595.769334,241.006154 595.825333,241.090154 595.9,241.183487 C595.974667,241.276821 596.086666,241.323487 596.236,241.323487 C596.497335,241.323487 596.683999,241.211488 596.796,240.987487 C597.020001,240.502152 597.215999,240.072823 597.384,239.699487 C597.552001,239.326152 597.729332,238.934156 597.916,238.523487 C598.102668,238.112819 598.298666,237.674156 598.504,237.207487 C598.709334,236.740818 598.961332,236.171491 599.26,235.499487 C599.782669,234.192814 600.351997,232.755495 600.968,231.187487 C601.584003,229.619479 602.20933,228.051495 602.844,226.483487 C603.47867,224.915479 604.08533,223.422161 604.664,222.003487 C605.24267,220.584814 605.755998,219.352826 606.204,218.307487 C606.502668,217.635484 606.894664,217.094156 607.38,216.683487 C607.865336,216.272819 608.387997,215.964822 608.948,215.759487 C609.508003,215.554153 610.058664,215.414154 610.6,215.339487 C611.141336,215.26482 611.598665,215.227487 611.972,215.227487 Z M635.212,235.611487 L634.876,235.611487 C634.726666,236.17149 634.446669,236.628819 634.036,236.983487 C633.625331,237.338156 632.990671,237.515487 632.132,237.515487 C631.38533,237.515487 630.72267,237.244823 630.144,236.703487 C629.56533,236.162151 629.276,235.051496 629.276,233.371487 C629.276,232.102148 629.285333,230.935493 629.304,229.871487 C629.322667,228.807482 629.332,227.771492 629.332,226.763487 C629.332,225.755482 629.341333,224.710159 629.36,223.627487 C629.378667,222.544815 629.388,221.331494 629.388,219.987487 C629.388,219.352817 629.369334,218.708824 629.332,218.055487 C629.294666,217.402151 629.201334,216.944822 629.052,216.683487 C628.678665,215.936817 628.062671,215.31149 627.204,214.807487 C626.345329,214.303485 625.430672,214.051487 624.46,214.051487 C623.974664,214.051487 623.349337,214.163486 622.584,214.387487 C621.818663,214.611488 620.978671,214.910152 620.064,215.283487 C619.149329,215.656823 618.188005,216.104818 617.18,216.627487 C616.171995,217.150157 615.182672,217.691485 614.212,218.251487 C613.913332,218.438155 613.568002,218.643486 613.176,218.867487 C612.783998,219.091488 612.420002,219.352819 612.084,219.651487 C611.747998,219.950155 611.468001,220.286152 611.244,220.659487 C611.019999,221.032823 610.908,221.443485 610.908,221.891487 C610.908,222.45149 611.122665,222.946152 611.552,223.375487 C611.981335,223.804823 612.494664,224.019487 613.092,224.019487 C613.72667,224.019487 614.314664,223.814156 614.856,223.403487 C615.397336,222.992819 615.668,222.526157 615.668,222.003487 L615.668,219.483487 C615.668,219.259486 615.798665,218.988822 616.06,218.671487 C616.321335,218.354152 616.675998,218.036822 617.124,217.719487 C617.572002,217.402152 618.08533,217.140822 618.664,216.935487 C619.24267,216.730153 619.830664,216.627487 620.428,216.627487 C621.324004,216.627487 622.051997,216.748819 622.612,216.991487 C623.172003,217.234155 623.610665,217.504819 623.928,217.803487 C624.245335,218.102155 624.469333,218.391486 624.6,218.671487 C624.730667,218.951489 624.796,219.12882 624.796,219.203487 L624.796,224.971487 C624.422665,225.195488 623.965336,225.447486 623.424,225.727487 C622.882664,226.007489 622.257337,226.343485 621.548,226.735487 C620.838663,227.127489 620.008005,227.603485 619.056,228.163487 C618.103995,228.72349 617.012006,229.395483 615.78,230.179487 C614.547994,230.963491 613.512004,231.840816 612.672,232.811487 C611.831996,233.782159 611.412,234.790149 611.412,235.835487 C611.412,236.806159 611.570665,237.627484 611.888,238.299487 C612.205335,238.971491 612.615997,239.522152 613.12,239.951487 C613.624003,240.380823 614.183997,240.679486 614.8,240.847487 C615.416003,241.015488 616.022664,241.099487 616.62,241.099487 C617.628005,241.099487 618.551996,240.940822 619.392,240.623487 C620.232004,240.306152 620.99733,239.886157 621.688,239.363487 C622.37867,238.840818 622.975997,238.280824 623.48,237.683487 C623.984003,237.086151 624.385332,236.544823 624.684,236.059487 L624.796,236.115487 C624.796,237.982163 625.290662,239.288817 626.28,240.035487 C627.269338,240.782158 628.39866,241.155487 629.668,241.155487 C630.452004,241.155487 631.170663,241.015489 631.824,240.735487 C632.477337,240.455486 633.046664,240.044823 633.532,239.503487 C634.017336,238.962151 634.409332,238.355491 634.708,237.683487 C635.006668,237.011484 635.174666,236.320824 635.212,235.611487 Z M624.796,234.491487 C624.796,235.126157 624.572002,235.648819 624.124,236.059487 C623.48933,236.694157 622.79867,237.123486 622.052,237.347487 C621.30533,237.571488 620.446672,237.683487 619.476,237.683487 C618.393328,237.683487 617.516003,237.291491 616.844,236.507487 C616.171997,235.723483 615.836,234.846159 615.836,233.875487 C615.836,232.904816 616.18133,232.036824 616.872,231.271487 C617.56267,230.50615 618.383995,229.806157 619.336,229.171487 C620.288005,228.536817 621.267995,227.948823 622.276,227.407487 C623.284005,226.866151 624.123997,226.352823 624.796,225.867487 L624.796,234.491487 Z M644.172,205.203487 C644.172,204.344816 643.88267,203.63549 643.304,203.075487 C642.72533,202.515485 642.006671,202.235487 641.148,202.235487 C640.289329,202.235487 639.57067,202.515485 638.992,203.075487 C638.41333,203.63549 638.124,204.344816 638.124,205.203487 C638.124,206.024825 638.422664,206.734151 639.02,207.331487 C639.617336,207.928824 640.326663,208.227487 641.148,208.227487 C642.006671,208.227487 642.72533,207.938157 643.304,207.359487 C643.88267,206.780818 644.172,206.062158 644.172,205.203487 Z M647.308,241.099487 L647.308,240.539487 C646.934665,240.46482 646.552002,240.418154 646.16,240.399487 C645.767998,240.380821 645.404002,240.334154 645.068,240.259487 C644.731998,240.18482 644.442668,240.063488 644.2,239.895487 C643.957332,239.727486 643.798667,239.456823 643.724,239.083487 L643.724,214.051487 L643.388,214.051487 L635.828,216.515487 L635.828,216.851487 C636.350669,217.038155 636.845331,217.243486 637.312,217.467487 C637.778669,217.691488 638.179998,217.915486 638.516,218.139487 C638.777335,218.326155 638.936,218.531486 638.992,218.755487 C639.048,218.979488 639.076,219.240819 639.076,219.539487 L639.076,238.747487 C639.076,239.083489 638.954668,239.363486 638.712,239.587487 C638.469332,239.811488 638.170668,239.98882 637.816,240.119487 C637.461332,240.250155 637.060002,240.343487 636.612,240.399487 C636.163998,240.455488 635.716002,240.502154 635.268,240.539487 L635.268,241.099487 L647.308,241.099487 Z M677.156,241.099487 L677.156,240.595487 C676.819998,240.558154 676.456002,240.511488 676.064,240.455487 C675.671998,240.399487 675.308002,240.324821 674.972,240.231487 C674.635998,240.138154 674.346668,239.998155 674.104,239.811487 C673.861332,239.62482 673.74,239.400822 673.74,239.139487 L673.74,222.675487 C673.74,220.136808 673.161339,218.064829 672.004,216.459487 C670.846661,214.854146 669.185344,214.051487 667.02,214.051487 C666.011995,214.051487 665.041338,214.247485 664.108,214.639487 C663.174662,215.031489 662.316004,215.526151 661.532,216.123487 C660.747996,216.720824 660.048003,217.383484 659.432,218.111487 C658.815997,218.839491 658.302669,219.520817 657.892,220.155487 L657.78,220.099487 L657.78,214.051487 L657.444,214.051487 L650.108,216.683487 L650.108,217.019487 C650.556002,217.206155 651.003998,217.420819 651.452,217.663487 C651.900002,217.906155 652.291998,218.12082 652.628,218.307487 C652.889335,218.494155 653.048,218.662153 653.104,218.811487 C653.16,218.960821 653.188,219.184819 653.188,219.483487 L653.188,238.747487 C653.188,239.344824 652.880003,239.774153 652.264,240.035487 C651.647997,240.296822 650.910671,240.46482 650.052,240.539487 L650.052,241.099487 L660.86,241.099487 L660.86,240.539487 C660.486665,240.46482 660.132002,240.418154 659.796,240.399487 C659.459998,240.380821 659.161335,240.334154 658.9,240.259487 C658.638665,240.18482 658.414668,240.063488 658.228,239.895487 C658.041332,239.727486 657.910667,239.456823 657.836,239.083487 L657.836,220.715487 C658.844005,219.707482 659.758663,218.942157 660.58,218.419487 C661.401337,217.896818 662.427994,217.635487 663.66,217.635487 C665.601343,217.635487 666.982663,218.298147 667.804,219.623487 C668.625337,220.948827 669.036,222.694143 669.036,224.859487 L669.036,238.971487 C669.036,239.568824 668.737336,239.951486 668.14,240.119487 C667.542664,240.287488 666.740005,240.40882 665.732,240.483487 L665.732,241.099487 L677.156,241.099487 Z M687.572,205.203487 C687.572,204.344816 687.28267,203.63549 686.704,203.075487 C686.12533,202.515485 685.406671,202.235487 684.548,202.235487 C683.689329,202.235487 682.97067,202.515485 682.392,203.075487 C681.81333,203.63549 681.524,204.344816 681.524,205.203487 C681.524,206.024825 681.822664,206.734151 682.42,207.331487 C683.017336,207.928824 683.726663,208.227487 684.548,208.227487 C685.406671,208.227487 686.12533,207.938157 686.704,207.359487 C687.28267,206.780818 687.572,206.062158 687.572,205.203487 Z M690.708,241.099487 L690.708,240.539487 C690.334665,240.46482 689.952002,240.418154 689.56,240.399487 C689.167998,240.380821 688.804002,240.334154 688.468,240.259487 C688.131998,240.18482 687.842668,240.063488 687.6,239.895487 C687.357332,239.727486 687.198667,239.456823 687.124,239.083487 L687.124,214.051487 L686.788,214.051487 L679.228,216.515487 L679.228,216.851487 C679.750669,217.038155 680.245331,217.243486 680.712,217.467487 C681.178669,217.691488 681.579998,217.915486 681.916,218.139487 C682.177335,218.326155 682.336,218.531486 682.392,218.755487 C682.448,218.979488 682.476,219.240819 682.476,219.539487 L682.476,238.747487 C682.476,239.083489 682.354668,239.363486 682.112,239.587487 C681.869332,239.811488 681.570668,239.98882 681.216,240.119487 C680.861332,240.250155 680.460002,240.343487 680.012,240.399487 C679.563998,240.455488 679.116002,240.502154 678.668,240.539487 L678.668,241.099487 L690.708,241.099487 Z M719.436,227.379487 C719.436,225.139476 719.034671,223.188829 718.232,221.527487 C717.429329,219.866146 716.402673,218.484826 715.152,217.383487 C713.901327,216.282148 712.510674,215.45149 710.98,214.891487 C709.449326,214.331485 707.937341,214.051487 706.444,214.051487 C704.42799,214.051487 702.589342,214.424817 700.928,215.171487 C699.266658,215.918158 697.848006,216.907481 696.672,218.139487 C695.495994,219.371493 694.581337,220.790146 693.928,222.395487 C693.274663,224.000829 692.948,225.662145 692.948,227.379487 C692.948,229.768833 693.367996,231.850145 694.208,233.623487 C695.048004,235.39683 696.13066,236.852815 697.456,237.991487 C698.78134,239.13016 700.227992,239.960818 701.796,240.483487 C703.364008,241.006157 704.875993,241.267487 706.332,241.267487 C708.086675,241.267487 709.757325,240.912824 711.344,240.203487 C712.930675,239.49415 714.321327,238.504827 715.516,237.235487 C716.710673,235.966148 717.662663,234.482162 718.372,232.783487 C719.081337,231.084812 719.436,229.283497 719.436,227.379487 Z M714.228,227.323487 C714.228,228.630161 714.088001,230.048813 713.808,231.579487 C713.527999,233.110162 713.080003,234.538147 712.464,235.863487 C711.847997,237.188827 711.045338,238.29015 710.056,239.167487 C709.066662,240.044825 707.844007,240.483487 706.388,240.483487 C704.931993,240.483487 703.681339,240.138157 702.636,239.447487 C701.590661,238.756817 700.732003,237.823493 700.06,236.647487 C699.387997,235.471481 698.902668,234.118162 698.604,232.587487 C698.305332,231.056813 698.156,229.432829 698.156,227.715487 C698.156,226.147479 698.333332,224.607495 698.688,223.095487 C699.042668,221.58348 699.56533,220.220827 700.256,219.007487 C700.94667,217.794148 701.777328,216.814158 702.748,216.067487 C703.718672,215.320817 704.819994,214.947487 706.052,214.947487 C707.582674,214.947487 708.870661,215.348817 709.916,216.151487 C710.961339,216.954158 711.80133,217.971481 712.436,219.203487 C713.07067,220.435493 713.527999,221.77948 713.808,223.235487 C714.088001,224.691495 714.228,226.054148 714.228,227.323487 Z" id="Dunning-Krüger-Elova" fill="#4A4A4A" sketch:type="MSShapeGroup"></path>
        </g>
    </g>
</svg>