<?xml version="1.0" encoding="UTF-8"?>
<svg width="850px" height="455px" viewBox="0 0 850 455" version="1.1" xmlns="http://www.w3.org/2000/svg" xmlns:xlink="http://www.w3.org/1999/xlink">
    <!-- Generator: Sketch 55.2 (78181) - https://sketchapp.com -->
    <title>spot-totesafrica</title>
    <desc>Created with Sketch.</desc>
    <defs>
        <radialGradient cx="50%" cy="50%" fx="50%" fy="50%" r="100%" gradientTransform="translate(0.500000,0.500000),scale(0.535294,1.000000),rotate(90.000000),translate(-0.500000,-0.500000)" id="radialGradient-1">
            <stop stop-color="#3E0651" stop-opacity="0" offset="0%"></stop>
            <stop stop-color="#2C0647" stop-opacity="0.0690013112" offset="100%"></stop>
        </radialGradient>
        <rect id="path-2" x="-0.485554353" y="0" width="850" height="455"></rect>
    </defs>
    <g id="spot-totesafrica" stroke="none" stroke-width="1" fill="none" fill-rule="evenodd">
        <g id="Rectangle">
            <use fill="#F5F7F1" xlink:href="#path-2"></use>
            <use fill="url(#radialGradient-1)" xlink:href="#path-2"></use>
        </g>
        <path d="M293.9,244.8 C296.3,228.2 300.3,208.8 305.3,193.8 C292.5,209.2 278.1,228.4 265.5,248 C269.5,247.6 273.5,247.2 277.3,246.6 C284.1,245.8 288.5,245 293.9,244.8 Z M299.7,291.8 C295.3,289.6 291.5,284.4 291.3,272.8 C291.3,269.2 291.3,264.6 291.9,259.4 L277.9,260.8 C269.9,261.6 262.1,262.4 256.5,262.2 C251.1,271.6 246.7,281.6 242.1,289.8 C239.7,294 236.3,293.2 234.9,290.4 C233.7,288 232.5,286.2 232.5,283 C232.5,279.8 233.3,275.2 235.7,269.4 C236.9,266.4 238.3,263 240.5,258.8 C236.9,256.2 235.1,253.4 234.5,252.2 C232.9,248.4 233.7,247.2 238.9,248 C241.7,248.4 243.3,248.6 246.1,248.8 C261.1,222.6 288.7,184 309.7,166.2 C314.1,162.6 317.1,162.8 320.1,166.8 C322.1,169.4 323.3,171.6 324.7,175 C325.7,177.4 326.3,179.6 326.3,182 C326.3,184.4 325.9,187.2 324.7,190.2 C320.1,204.6 314.5,225.4 310.7,246.4 C316.1,248.8 318.1,252.6 319.5,256.8 C320.5,260 319.1,260.8 315.5,260.2 L308.5,259 C307.3,269 306.3,279.2 305.9,289 C305.9,292.6 303.3,293.4 299.7,291.8 Z M375.7,197.6 C361.7,220.6 352.1,236.8 344.3,252.4 C354.9,256.2 356.9,273 356.5,279 C366.7,270.2 376.7,252.2 383.9,232.2 C379.7,230 378.1,226.8 378.1,222.8 C378.1,212.4 390.5,197.8 396.9,197.8 C401.1,197.8 403.1,200.6 403.1,205.4 C403.1,209.6 402.1,215.6 399.9,222 C405.5,221 410.9,218.2 417.5,213.4 C421.1,210.8 423.5,210 426.1,213 C428.9,216.4 432.3,221.8 432.3,226.8 C432.3,229.2 431.3,231.8 428.9,234.6 C419.9,244.2 410.5,257.8 407.1,268 C406.1,271 405.5,273.8 405.5,276.8 C405.5,281.8 407.3,285.4 410.1,285.4 C416.7,285.4 428.1,273.4 434.5,259.2 C436.1,255 438.9,254.6 441.3,259.2 C442.3,261.4 442.7,266.6 440.3,272.6 C435.3,284.8 420.5,293.2 408.7,293.2 C396.1,293.2 389.1,284.2 389.1,272.8 C389.1,269.6 389.7,266.2 391.1,262 C394.3,251.8 402.9,239.8 410.5,230.6 C406.5,232 399.3,233.8 395.7,234 C387.5,257.4 373.1,281.2 355.3,289.2 C351.7,309.4 342.1,332 332.3,344.2 C328.1,349.4 324.1,351.4 320.1,351.4 C316.3,351.4 313.3,349.4 310.3,347 C305.7,343.2 300.9,337.2 300.9,325.4 C300.9,323.2 301.1,320.4 301.5,318 C308.1,274.8 352.1,199.2 374.1,167 C377.1,162.4 380.7,163 382.5,167.4 C383.3,169.8 383.9,172.4 383.9,174.8 C383.9,180.2 381.5,188.2 375.7,197.6 Z M340.3,259.8 C339.1,259.8 337.7,269.6 337.7,274.2 C337.7,278.2 338.1,281.6 339.3,283.2 C340.1,279 340.5,275 340.7,271.2 C341.1,265.2 340.9,259.8 340.3,259.8 Z M315.3,333.2 C315.3,337 315.9,338.6 317.1,338.6 C320.9,338.6 331.9,314.2 337.3,291.6 C333.5,291 330.5,289.4 328.3,287.2 C320.7,306.2 315.3,323.8 315.3,333.2 Z M464.5,201.8 C464.5,196.2 468.7,191 473.3,191 C478.9,191 484.3,198.2 484.3,204 C484.3,209.4 481.3,214 476.3,214 C469.9,214 464.5,208 464.5,201.8 Z M479.3,272 C473.3,284.6 459.5,293 447.7,293 C435.5,293 430.1,286 430.1,276 C430.1,272.2 430.9,268 432.5,262.8 C437.5,248.8 450.3,225.6 457.7,215.2 C460.7,211.2 463.1,210.8 465.7,213.8 C469.5,217.8 471.1,226.4 465.9,236.4 C462.1,245 452.9,260 449.5,268 C447.7,272.6 446.7,276.8 446.7,280 C446.7,283.2 447.5,285 449.7,285 C457.7,285 468.1,271.6 474.3,258 C475.9,254.4 478.5,254.8 480.3,258.4 C482.1,261.8 481.9,266.8 479.3,272 Z M516.5,210.8 C523.9,210.8 532.3,217.6 535.5,223.6 C538.5,230.2 535.3,237.6 531.5,245.4 C529.9,248.4 528.7,251.4 527.9,253.6 C526.5,257.4 524.7,257.8 520.7,255.8 C517.1,253.6 513.7,249.8 513.7,244.4 C513.7,241.8 514.7,237.8 518.3,229.6 C520.3,225.6 521.7,222 520.9,221.2 C518.5,219.2 505.5,232.2 497.5,248.4 C493.5,256.6 491.5,264.8 491.5,270.8 C491.5,279.6 495.1,285 500.5,285.2 C515.5,285.4 529.3,270 537.3,258 C539.1,255 542.1,254.2 543.3,257.6 C544.3,260.2 544.3,265.4 540.7,271 C533.1,283 516.9,292.8 501.3,293 C482.9,293.2 472.7,281.4 472.7,265.4 C472.7,258.2 474.7,250.2 478.9,242.2 C489.1,221.6 504.9,210.8 516.5,210.8 Z M545.5,242.6 C561.5,219.6 577.9,210.2 588.1,210.2 C595.3,210.2 599.7,213.8 601.5,219 L605.3,212.8 C607.7,208.8 611.1,208.6 613.5,211.4 C616.9,215.4 618.7,224.2 613.5,234.6 C608.3,245.6 591.5,267.4 591.5,280.8 C591.5,283.8 592.3,285.6 594.3,285.6 C601.5,285.6 611.5,272 618.1,259 C620.3,255 622.1,254.8 624.1,259 C624.9,260.8 626.1,266.2 623.3,272 C618.1,283 605.3,293.6 593.1,293.6 C583.1,293.6 577.3,288.4 575.7,281 C569.9,286.6 560.9,292.8 552.9,292.8 C541.1,292.8 534.7,284.2 534.7,272.4 C534.7,263.8 538.3,252.6 545.5,242.6 Z M555.5,284 C562.1,284 571.3,271.8 581.1,255 C588.9,241.4 592.5,231.6 592.5,226.4 C592.5,224 592.1,222.6 590.1,222.6 C586.1,222.6 572.3,235.2 562.1,251.6 C556.1,261 552.7,271.6 552.7,278 C552.7,281.6 553.5,284 555.5,284 Z" id="Afica" fill="#FF4400" fill-rule="nonzero" transform="translate(428.777038, 257.521053) rotate(-10.000000) translate(-428.777038, -257.521053) "></path>
        <path d="M378.206061,121.000027 L377.366062,126.240022 L368.60607,126.240022 L365.006074,149 L359.00608,149 L362.606076,126.240022 L353.846085,126.240022 L354.686084,121.000027 L378.206061,121.000027 Z M393.795638,149.719999 C385.715646,149.719999 381.19565,144.840004 381.19565,137.160011 C381.19565,127.200027 387.235645,120.200027 396.355636,120.200027 C404.395628,120.200027 408.875624,125.160023 408.875624,132.800015 C408.875624,142.800006 402.87563,149.719999 393.795638,149.719999 Z M394.195638,144.560004 C399.315633,144.560004 402.71563,139.880009 402.71563,133.200015 C402.71563,128.40002 400.315632,125.360023 395.955636,125.360023 C390.755641,125.360023 387.355644,130.080018 387.355644,136.760012 C387.355644,141.560007 389.755642,144.560004 394.195638,144.560004 Z M439.905192,121.000027 L439.065193,126.240022 L430.305201,126.240022 L426.705204,149 L420.70521,149 L424.305207,126.240022 L415.545215,126.240022 L416.385214,121.000027 L439.905192,121.000027 Z M465.37476,125.880022 L452.934772,125.880022 L451.894773,132.400016 L463.294762,132.400016 L462.534763,137.240011 L451.094774,137.240011 L450.014775,144.120005 L462.774763,144.120005 L461.974763,149 L443.254781,149 L447.694777,121.000027 L466.174759,121.000027 L465.37476,125.880022 Z M479.164339,149.759999 C475.364342,149.759999 472.084345,149.04 470.044347,148.000001 L470.924346,142.480006 C473.164344,143.920005 476.124342,144.760004 479.684338,144.760004 C483.884334,144.760004 486.084332,143.640005 486.084332,141.120008 C486.084332,139.160009 484.804333,138.20001 480.164338,137.040011 C475.444342,135.800013 473.004345,133.520015 473.004345,129.320019 C473.004345,123.280025 477.60434,120.200027 485.084333,120.200027 C488.00433,120.200027 490.844327,120.600027 493.324325,121.640026 L492.484326,126.720021 C490.004328,125.720022 487.444331,125.200027 484.524334,125.200027 C480.724337,125.200027 478.724339,126.200027 478.724339,128.52002 C478.724339,130.120018 479.884338,130.920017 483.684334,131.960016 C489.364329,133.480015 491.924326,135.800013 491.924326,140.160008 C491.924326,146.640002 487.364331,149.759999 479.164339,149.759999 Z" id="TOTES" fill="#767676" fill-rule="nonzero"></path>
    </g>
</svg>