<?xml version="1.0" encoding="UTF-8" standalone="no"?>
<svg width="450px" height="245px" viewBox="0 0 450 245" version="1.1" xmlns="http://www.w3.org/2000/svg" xmlns:xlink="http://www.w3.org/1999/xlink" xmlns:sketch="http://www.bohemiancoding.com/sketch/ns">
    <title>spot-reseptit</title>
    <description>Created with Sketch (http://www.bohemiancoding.com/sketch)</description>
    <defs>
        <filter x="-50%" y="-50%" width="200%" height="200%" filterUnits="objectBoundingBox" id="filter-1">
            <feOffset dx="0" dy="2" in="SourceAlpha" result="shadowOffsetOuter1"></feOffset>
            <feGaussianBlur stdDeviation="0" in="shadowOffsetOuter1" result="shadowBlurOuter1"></feGaussianBlur>
            <feColorMatrix values="0 0 0 0 1   0 0 0 0 0.999936521   0 0 0 0 1  0 0 0 0.7 0" in="shadowBlurOuter1" type="matrix" result="shadowMatrixOuter1"></feColorMatrix>
            <feMerge>
                <feMergeNode in="shadowMatrixOuter1"></feMergeNode>
                <feMergeNode in="SourceGraphic"></feMergeNode>
            </feMerge>
        </filter>
    </defs>
    <g id="Page-1" stroke="none" stroke-width="1" fill="none" fill-rule="evenodd" sketch:type="MSPage">
        <g id="spot-reseptit" sketch:type="MSArtboardGroup">
            <rect id="Rectangle-1" stroke="#979797" fill="#011D43" sketch:type="MSShapeGroup" x="0" y="0" width="450" height="245"></rect>
            <path d="M258.56543,113.648438 L258.56543,113.964844 L257.985352,114.28125 L257.563477,114.175781 L231.459961,105.84375 L225.711914,132.632812 C225.571288,132.914064 225.465821,133.089843 225.395508,133.160156 C225.325195,133.230469 225.202149,133.265625 225.026367,133.265625 C224.885741,133.230469 224.762696,133.160157 224.657227,133.054688 C224.551757,132.949218 224.481445,132.826173 224.446289,132.685547 L218.592773,105.84375 L192.436523,114.175781 L192.014648,114.28125 L191.487305,113.964844 L191.487305,113.648438 L191.803711,113.121094 L212.106445,94.6113281 L191.803711,76.1542969 L191.487305,75.6269531 L191.487305,75.3105469 L192.014648,74.9941406 L192.436523,75.0996094 L218.592773,83.3789062 L224.288086,56.6425781 C224.393555,56.4316396 224.507812,56.2646491 224.630859,56.1416016 C224.753907,56.0185541 224.850586,55.9570312 224.920898,55.9570312 C225.096681,56.0273441 225.237304,56.1152338 225.342773,56.2207031 C225.448243,56.3261724 225.536132,56.449218 225.606445,56.5898438 L231.459961,83.3789062 L257.563477,75.0996094 L257.985352,74.9941406 L258.56543,75.3105469 L258.56543,75.6269531 L258.196289,76.1542969 L237.893555,94.6113281 L258.196289,113.121094 L258.56543,113.648438 Z" id="✶" fill="#F8E81C" sketch:type="MSShapeGroup"></path>
            <path d="M162.48,130.779906 C162.48,133.051918 161.840006,134.963898 160.56,136.515906 C159.279994,138.067914 157.440012,139.259902 155.04,140.091906 L165.84,153.003906 L157.488,153.003906 L148.224,141.339906 L146.064,141.339906 L146.064,153.003906 L139.344,153.003906 L139.344,121.035906 L148.896,121.035906 C150.88001,121.035906 152.703992,121.235904 154.368,121.635906 C156.032008,122.035908 157.463994,122.643902 158.664,123.459906 C159.864006,124.27591 160.799997,125.2919 161.472,126.507906 C162.144003,127.723912 162.48,129.147898 162.48,130.779906 Z M155.76,130.923906 C155.76,129.291898 155.120006,128.10791 153.84,127.371906 C152.559994,126.635903 150.89601,126.267906 148.848,126.267906 L146.064,126.267906 L146.064,136.251906 L148.08,136.251906 C150.384012,136.251906 152.239993,135.803911 153.648,134.907906 C155.056007,134.011902 155.76,132.683915 155.76,130.923906 Z M178.944,129.147906 C180.480008,129.147906 181.847994,129.387904 183.048,129.867906 C184.248006,130.347909 185.247996,131.027902 186.048,131.907906 C186.848004,132.787911 187.455998,133.8439 187.872,135.075906 C188.288002,136.307912 188.496,137.691899 188.496,139.227906 C188.496,139.867909 188.456,140.515903 188.376,141.171906 C188.296,141.82791 188.176001,142.427904 188.016,142.971906 L174.144,142.971906 C174.208,144.699915 174.735995,146.075901 175.728,147.099906 C176.720005,148.123911 178.303989,148.635906 180.48,148.635906 C181.728006,148.635906 182.943994,148.515907 184.128,148.275906 C185.312006,148.035905 186.367995,147.691908 187.296,147.243906 L188.112,151.707906 C186.959994,152.283909 185.648007,152.723905 184.176,153.027906 C182.703993,153.331908 181.184008,153.483906 179.616,153.483906 C177.66399,153.483906 175.936008,153.195909 174.432,152.619906 C172.927992,152.043903 171.656005,151.227912 170.616,150.171906 C169.575995,149.115901 168.784003,147.843914 168.24,146.355906 C167.695997,144.867899 167.424,143.227915 167.424,141.435906 C167.424,139.611897 167.687997,137.939914 168.216,136.419906 C168.744003,134.899899 169.503995,133.603912 170.496,132.531906 C171.488005,131.459901 172.695993,130.627909 174.12,130.035906 C175.544007,129.443903 177.151991,129.147906 178.944,129.147906 Z M178.56,133.563906 C177.215993,133.563906 176.184004,134.035902 175.464,134.979906 C174.743996,135.923911 174.320001,137.115899 174.192,138.555906 L182.208,138.555906 C182.368001,137.051899 182.144003,135.843911 181.536,134.931906 C180.927997,134.019902 179.936007,133.563906 178.56,133.563906 Z M209.616,145.707906 C209.616,146.955912 209.360003,148.067901 208.848,149.043906 C208.335997,150.019911 207.632004,150.835903 206.736,151.491906 C205.839996,152.14791 204.784006,152.643905 203.568,152.979906 C202.351994,153.315908 201.024007,153.483906 199.584,153.483906 C198.367994,153.483906 197.048007,153.347908 195.624,153.075906 C194.199993,152.803905 192.960005,152.443908 191.904,151.995906 L192.864,147.339906 C193.888005,147.755908 194.943995,148.083905 196.032,148.323906 C197.120005,148.563907 198.223994,148.683906 199.344,148.683906 C200.432005,148.683906 201.335996,148.523908 202.056,148.203906 C202.776004,147.883905 203.136,147.30791 203.136,146.475906 C203.136,145.739903 202.784004,145.203908 202.08,144.867906 C201.375996,144.531905 200.448006,144.123909 199.296,143.643906 C198.367995,143.259904 197.472004,142.867908 196.608,142.467906 C195.743996,142.067904 194.984003,141.587909 194.328,141.027906 C193.671997,140.467903 193.144002,139.81191 192.744,139.059906 C192.343998,138.307902 192.144,137.371912 192.144,136.251906 C192.144,135.0359 192.375998,133.979911 192.84,133.083906 C193.304002,132.187902 193.943996,131.451909 194.76,130.875906 C195.576004,130.299903 196.535994,129.867908 197.64,129.579906 C198.744006,129.291905 199.935994,129.147906 201.216,129.147906 C202.560007,129.147906 203.847994,129.267905 205.08,129.507906 C206.312006,129.747907 207.503994,130.171903 208.656,130.779906 L207.648,135.435906 C206.719995,135.019904 205.752005,134.675908 204.744,134.403906 C203.735995,134.131905 202.720005,133.995906 201.696,133.995906 C200.767995,133.995906 200.024003,134.099905 199.464,134.307906 C198.903997,134.515907 198.624,134.955903 198.624,135.627906 C198.624,136.267909 198.959997,136.747905 199.632,137.067906 C200.304003,137.387908 201.103995,137.755904 202.032,138.171906 C202.704003,138.459908 203.479996,138.787904 204.36,139.155906 C205.240004,139.523908 206.063996,139.995903 206.832,140.571906 C207.600004,141.147909 208.255997,141.843902 208.8,142.659906 C209.344003,143.47591 209.616,144.4919 209.616,145.707906 Z M224.064,129.147906 C225.600008,129.147906 226.967994,129.387904 228.168,129.867906 C229.368006,130.347909 230.367996,131.027902 231.168,131.907906 C231.968004,132.787911 232.575998,133.8439 232.992,135.075906 C233.408002,136.307912 233.616,137.691899 233.616,139.227906 C233.616,139.867909 233.576,140.515903 233.496,141.171906 C233.416,141.82791 233.296001,142.427904 233.136,142.971906 L219.264,142.971906 C219.328,144.699915 219.855995,146.075901 220.848,147.099906 C221.840005,148.123911 223.423989,148.635906 225.6,148.635906 C226.848006,148.635906 228.063994,148.515907 229.248,148.275906 C230.432006,148.035905 231.487995,147.691908 232.416,147.243906 L233.232,151.707906 C232.079994,152.283909 230.768007,152.723905 229.296,153.027906 C227.823993,153.331908 226.304008,153.483906 224.736,153.483906 C222.78399,153.483906 221.056008,153.195909 219.552,152.619906 C218.047992,152.043903 216.776005,151.227912 215.736,150.171906 C214.695995,149.115901 213.904003,147.843914 213.36,146.355906 C212.815997,144.867899 212.544,143.227915 212.544,141.435906 C212.544,139.611897 212.807997,137.939914 213.336,136.419906 C213.864003,134.899899 214.623995,133.603912 215.616,132.531906 C216.608005,131.459901 217.815993,130.627909 219.24,130.035906 C220.664007,129.443903 222.271991,129.147906 224.064,129.147906 Z M223.68,133.563906 C222.335993,133.563906 221.304004,134.035902 220.584,134.979906 C219.863996,135.923911 219.440001,137.115899 219.312,138.555906 L227.328,138.555906 C227.488001,137.051899 227.264003,135.843911 226.656,134.931906 C226.047997,134.019902 225.056007,133.563906 223.68,133.563906 Z M238.416,129.627906 L244.704,129.627906 L244.704,132.603906 C245.472004,131.547901 246.431994,130.707909 247.584,130.083906 C248.736006,129.459903 250.143992,129.147906 251.808,129.147906 C253.216007,129.147906 254.495994,129.435903 255.648,130.011906 C256.800006,130.587909 257.783996,131.395901 258.6,132.435906 C259.416004,133.475911 260.047998,134.723899 260.496,136.179906 C260.944002,137.635914 261.168,139.259897 261.168,141.051906 C261.168,143.067916 260.848003,144.851898 260.208,146.403906 C259.567997,147.955914 258.704005,149.259901 257.616,150.315906 C256.527995,151.371912 255.256007,152.163904 253.8,152.691906 C252.343993,153.219909 250.784008,153.483906 249.12,153.483906 C248.255996,153.483906 247.488003,153.427907 246.816,153.315906 C246.143997,153.203906 245.536003,153.067907 244.992,152.907906 L244.992,162.891906 L238.416,162.891906 L238.416,129.627906 Z M249.6,134.283906 C248.543995,134.283906 247.624004,134.507904 246.84,134.955906 C246.055996,135.403908 245.440002,135.899904 244.992,136.443906 L244.992,148.011906 C245.408002,148.171907 245.887997,148.291906 246.432,148.371906 C246.976003,148.451907 247.551997,148.491906 248.16,148.491906 C250.400011,148.491906 252.031995,147.803913 253.056,146.427906 C254.080005,145.051899 254.592,143.275917 254.592,141.099906 C254.592,139.147896 254.184004,137.523913 253.368,136.227906 C252.551996,134.9319 251.296008,134.283906 249.6,134.283906 Z M263.424,129.627906 L267.216,129.627906 L267.216,123.579906 L273.792,123.579906 L273.792,129.627906 L280.8,129.627906 L280.8,134.763906 L273.792,134.763906 L273.792,144.795906 C273.792,145.883912 273.991998,146.747903 274.392,147.387906 C274.792002,148.027909 275.583994,148.347906 276.768,148.347906 C278.016006,148.347906 279.199994,148.171908 280.32,147.819906 L280.8,152.475906 C280.095996,152.763908 279.216005,153.003905 278.16,153.195906 C277.103995,153.387907 276.048005,153.483906 274.992,153.483906 C273.583993,153.483906 272.392005,153.267908 271.416,152.835906 C270.439995,152.403904 269.640003,151.80391 269.016,151.035906 C268.391997,150.267902 267.936001,149.371911 267.648,148.347906 C267.359999,147.323901 267.216,146.203912 267.216,144.987906 L267.216,134.763906 L263.424,134.763906 L263.424,129.627906 Z M285.072,153.003906 L285.072,129.627906 L291.648,129.627906 L291.648,153.003906 L285.072,153.003906 Z M284.544,122.811906 C284.544,121.755901 284.895996,120.85991 285.6,120.123906 C286.304004,119.387903 287.215994,119.019906 288.336,119.019906 C289.456006,119.019906 290.375996,119.387903 291.096,120.123906 C291.816004,120.85991 292.176,121.755901 292.176,122.811906 C292.176,123.835911 291.816004,124.723902 291.096,125.475906 C290.375996,126.22791 289.456006,126.603906 288.336,126.603906 C287.215994,126.603906 286.304004,126.22791 285.6,125.475906 C284.895996,124.723902 284.544,123.835911 284.544,122.811906 Z M295.488,129.627906 L299.28,129.627906 L299.28,123.579906 L305.856,123.579906 L305.856,129.627906 L312.864,129.627906 L312.864,134.763906 L305.856,134.763906 L305.856,144.795906 C305.856,145.883912 306.055998,146.747903 306.456,147.387906 C306.856002,148.027909 307.647994,148.347906 308.832,148.347906 C310.080006,148.347906 311.263994,148.171908 312.384,147.819906 L312.864,152.475906 C312.159996,152.763908 311.280005,153.003905 310.224,153.195906 C309.167995,153.387907 308.112005,153.483906 307.056,153.483906 C305.647993,153.483906 304.456005,153.267908 303.48,152.835906 C302.503995,152.403904 301.704003,151.80391 301.08,151.035906 C300.455997,150.267902 300.000001,149.371911 299.712,148.347906 C299.423999,147.323901 299.28,146.203912 299.28,144.987906 L299.28,134.763906 L295.488,134.763906 L295.488,129.627906 Z" id="Reseptit" fill="#011D43" filter="url(#filter-1)" sketch:type="MSShapeGroup"></path>
            <path d="M162.48,129.779906 C162.48,132.051918 161.840006,133.963898 160.56,135.515906 C159.279994,137.067914 157.440012,138.259902 155.04,139.091906 L165.84,152.003906 L157.488,152.003906 L148.224,140.339906 L146.064,140.339906 L146.064,152.003906 L139.344,152.003906 L139.344,120.035906 L148.896,120.035906 C150.88001,120.035906 152.703992,120.235904 154.368,120.635906 C156.032008,121.035908 157.463994,121.643902 158.664,122.459906 C159.864006,123.27591 160.799997,124.2919 161.472,125.507906 C162.144003,126.723912 162.48,128.147898 162.48,129.779906 Z M155.76,129.923906 C155.76,128.291898 155.120006,127.10791 153.84,126.371906 C152.559994,125.635903 150.89601,125.267906 148.848,125.267906 L146.064,125.267906 L146.064,135.251906 L148.08,135.251906 C150.384012,135.251906 152.239993,134.803911 153.648,133.907906 C155.056007,133.011902 155.76,131.683915 155.76,129.923906 Z M178.944,128.147906 C180.480008,128.147906 181.847994,128.387904 183.048,128.867906 C184.248006,129.347909 185.247996,130.027902 186.048,130.907906 C186.848004,131.787911 187.455998,132.8439 187.872,134.075906 C188.288002,135.307912 188.496,136.691899 188.496,138.227906 C188.496,138.867909 188.456,139.515903 188.376,140.171906 C188.296,140.82791 188.176001,141.427904 188.016,141.971906 L174.144,141.971906 C174.208,143.699915 174.735995,145.075901 175.728,146.099906 C176.720005,147.123911 178.303989,147.635906 180.48,147.635906 C181.728006,147.635906 182.943994,147.515907 184.128,147.275906 C185.312006,147.035905 186.367995,146.691908 187.296,146.243906 L188.112,150.707906 C186.959994,151.283909 185.648007,151.723905 184.176,152.027906 C182.703993,152.331908 181.184008,152.483906 179.616,152.483906 C177.66399,152.483906 175.936008,152.195909 174.432,151.619906 C172.927992,151.043903 171.656005,150.227912 170.616,149.171906 C169.575995,148.115901 168.784003,146.843914 168.24,145.355906 C167.695997,143.867899 167.424,142.227915 167.424,140.435906 C167.424,138.611897 167.687997,136.939914 168.216,135.419906 C168.744003,133.899899 169.503995,132.603912 170.496,131.531906 C171.488005,130.459901 172.695993,129.627909 174.12,129.035906 C175.544007,128.443903 177.151991,128.147906 178.944,128.147906 Z M178.56,132.563906 C177.215993,132.563906 176.184004,133.035902 175.464,133.979906 C174.743996,134.923911 174.320001,136.115899 174.192,137.555906 L182.208,137.555906 C182.368001,136.051899 182.144003,134.843911 181.536,133.931906 C180.927997,133.019902 179.936007,132.563906 178.56,132.563906 Z M209.616,144.707906 C209.616,145.955912 209.360003,147.067901 208.848,148.043906 C208.335997,149.019911 207.632004,149.835903 206.736,150.491906 C205.839996,151.14791 204.784006,151.643905 203.568,151.979906 C202.351994,152.315908 201.024007,152.483906 199.584,152.483906 C198.367994,152.483906 197.048007,152.347908 195.624,152.075906 C194.199993,151.803905 192.960005,151.443908 191.904,150.995906 L192.864,146.339906 C193.888005,146.755908 194.943995,147.083905 196.032,147.323906 C197.120005,147.563907 198.223994,147.683906 199.344,147.683906 C200.432005,147.683906 201.335996,147.523908 202.056,147.203906 C202.776004,146.883905 203.136,146.30791 203.136,145.475906 C203.136,144.739903 202.784004,144.203908 202.08,143.867906 C201.375996,143.531905 200.448006,143.123909 199.296,142.643906 C198.367995,142.259904 197.472004,141.867908 196.608,141.467906 C195.743996,141.067904 194.984003,140.587909 194.328,140.027906 C193.671997,139.467903 193.144002,138.81191 192.744,138.059906 C192.343998,137.307902 192.144,136.371912 192.144,135.251906 C192.144,134.0359 192.375998,132.979911 192.84,132.083906 C193.304002,131.187902 193.943996,130.451909 194.76,129.875906 C195.576004,129.299903 196.535994,128.867908 197.64,128.579906 C198.744006,128.291905 199.935994,128.147906 201.216,128.147906 C202.560007,128.147906 203.847994,128.267905 205.08,128.507906 C206.312006,128.747907 207.503994,129.171903 208.656,129.779906 L207.648,134.435906 C206.719995,134.019904 205.752005,133.675908 204.744,133.403906 C203.735995,133.131905 202.720005,132.995906 201.696,132.995906 C200.767995,132.995906 200.024003,133.099905 199.464,133.307906 C198.903997,133.515907 198.624,133.955903 198.624,134.627906 C198.624,135.267909 198.959997,135.747905 199.632,136.067906 C200.304003,136.387908 201.103995,136.755904 202.032,137.171906 C202.704003,137.459908 203.479996,137.787904 204.36,138.155906 C205.240004,138.523908 206.063996,138.995903 206.832,139.571906 C207.600004,140.147909 208.255997,140.843902 208.8,141.659906 C209.344003,142.47591 209.616,143.4919 209.616,144.707906 Z M224.064,128.147906 C225.600008,128.147906 226.967994,128.387904 228.168,128.867906 C229.368006,129.347909 230.367996,130.027902 231.168,130.907906 C231.968004,131.787911 232.575998,132.8439 232.992,134.075906 C233.408002,135.307912 233.616,136.691899 233.616,138.227906 C233.616,138.867909 233.576,139.515903 233.496,140.171906 C233.416,140.82791 233.296001,141.427904 233.136,141.971906 L219.264,141.971906 C219.328,143.699915 219.855995,145.075901 220.848,146.099906 C221.840005,147.123911 223.423989,147.635906 225.6,147.635906 C226.848006,147.635906 228.063994,147.515907 229.248,147.275906 C230.432006,147.035905 231.487995,146.691908 232.416,146.243906 L233.232,150.707906 C232.079994,151.283909 230.768007,151.723905 229.296,152.027906 C227.823993,152.331908 226.304008,152.483906 224.736,152.483906 C222.78399,152.483906 221.056008,152.195909 219.552,151.619906 C218.047992,151.043903 216.776005,150.227912 215.736,149.171906 C214.695995,148.115901 213.904003,146.843914 213.36,145.355906 C212.815997,143.867899 212.544,142.227915 212.544,140.435906 C212.544,138.611897 212.807997,136.939914 213.336,135.419906 C213.864003,133.899899 214.623995,132.603912 215.616,131.531906 C216.608005,130.459901 217.815993,129.627909 219.24,129.035906 C220.664007,128.443903 222.271991,128.147906 224.064,128.147906 Z M223.68,132.563906 C222.335993,132.563906 221.304004,133.035902 220.584,133.979906 C219.863996,134.923911 219.440001,136.115899 219.312,137.555906 L227.328,137.555906 C227.488001,136.051899 227.264003,134.843911 226.656,133.931906 C226.047997,133.019902 225.056007,132.563906 223.68,132.563906 Z M238.416,128.627906 L244.704,128.627906 L244.704,131.603906 C245.472004,130.547901 246.431994,129.707909 247.584,129.083906 C248.736006,128.459903 250.143992,128.147906 251.808,128.147906 C253.216007,128.147906 254.495994,128.435903 255.648,129.011906 C256.800006,129.587909 257.783996,130.395901 258.6,131.435906 C259.416004,132.475911 260.047998,133.723899 260.496,135.179906 C260.944002,136.635914 261.168,138.259897 261.168,140.051906 C261.168,142.067916 260.848003,143.851898 260.208,145.403906 C259.567997,146.955914 258.704005,148.259901 257.616,149.315906 C256.527995,150.371912 255.256007,151.163904 253.8,151.691906 C252.343993,152.219909 250.784008,152.483906 249.12,152.483906 C248.255996,152.483906 247.488003,152.427907 246.816,152.315906 C246.143997,152.203906 245.536003,152.067907 244.992,151.907906 L244.992,161.891906 L238.416,161.891906 L238.416,128.627906 Z M249.6,133.283906 C248.543995,133.283906 247.624004,133.507904 246.84,133.955906 C246.055996,134.403908 245.440002,134.899904 244.992,135.443906 L244.992,147.011906 C245.408002,147.171907 245.887997,147.291906 246.432,147.371906 C246.976003,147.451907 247.551997,147.491906 248.16,147.491906 C250.400011,147.491906 252.031995,146.803913 253.056,145.427906 C254.080005,144.051899 254.592,142.275917 254.592,140.099906 C254.592,138.147896 254.184004,136.523913 253.368,135.227906 C252.551996,133.9319 251.296008,133.283906 249.6,133.283906 Z M263.424,128.627906 L267.216,128.627906 L267.216,122.579906 L273.792,122.579906 L273.792,128.627906 L280.8,128.627906 L280.8,133.763906 L273.792,133.763906 L273.792,143.795906 C273.792,144.883912 273.991998,145.747903 274.392,146.387906 C274.792002,147.027909 275.583994,147.347906 276.768,147.347906 C278.016006,147.347906 279.199994,147.171908 280.32,146.819906 L280.8,151.475906 C280.095996,151.763908 279.216005,152.003905 278.16,152.195906 C277.103995,152.387907 276.048005,152.483906 274.992,152.483906 C273.583993,152.483906 272.392005,152.267908 271.416,151.835906 C270.439995,151.403904 269.640003,150.80391 269.016,150.035906 C268.391997,149.267902 267.936001,148.371911 267.648,147.347906 C267.359999,146.323901 267.216,145.203912 267.216,143.987906 L267.216,133.763906 L263.424,133.763906 L263.424,128.627906 Z M285.072,152.003906 L285.072,128.627906 L291.648,128.627906 L291.648,152.003906 L285.072,152.003906 Z M284.544,121.811906 C284.544,120.755901 284.895996,119.85991 285.6,119.123906 C286.304004,118.387903 287.215994,118.019906 288.336,118.019906 C289.456006,118.019906 290.375996,118.387903 291.096,119.123906 C291.816004,119.85991 292.176,120.755901 292.176,121.811906 C292.176,122.835911 291.816004,123.723902 291.096,124.475906 C290.375996,125.22791 289.456006,125.603906 288.336,125.603906 C287.215994,125.603906 286.304004,125.22791 285.6,124.475906 C284.895996,123.723902 284.544,122.835911 284.544,121.811906 Z M295.488,128.627906 L299.28,128.627906 L299.28,122.579906 L305.856,122.579906 L305.856,128.627906 L312.864,128.627906 L312.864,133.763906 L305.856,133.763906 L305.856,143.795906 C305.856,144.883912 306.055998,145.747903 306.456,146.387906 C306.856002,147.027909 307.647994,147.347906 308.832,147.347906 C310.080006,147.347906 311.263994,147.171908 312.384,146.819906 L312.864,151.475906 C312.159996,151.763908 311.280005,152.003905 310.224,152.195906 C309.167995,152.387907 308.112005,152.483906 307.056,152.483906 C305.647993,152.483906 304.456005,152.267908 303.48,151.835906 C302.503995,151.403904 301.704003,150.80391 301.08,150.035906 C300.455997,149.267902 300.000001,148.371911 299.712,147.347906 C299.423999,146.323901 299.28,145.203912 299.28,143.987906 L299.28,133.763906 L295.488,133.763906 L295.488,128.627906 Z" id="Reseptit" fill="#00AAFF" sketch:type="MSShapeGroup"></path>
        </g>
    </g>
</svg>