<svg height="445" viewBox="0 0 825 445" width="825" xmlns="http://www.w3.org/2000/svg"><g fill="none" fill-rule="evenodd"><path d="m0 0h825v445h-825z" fill="#bcffb8"/><g fill="#2a3f74" fill-rule="nonzero" transform="translate(105 163)"><path d="m166.769231 93.3333333v-93.3333333h-26.769231v120h87v-26.6666667z"/><path d="m322.25 0v93.3333333h-53.5v-93.3333333h-26.75v120h107v-120z"/><path d="m371 0v120h26.75v-93.3333333h53.5v93.3333333h26.75v-120z"/><path d="m3.54770363 0v26.6650207h86.73318957v93.3275723h26.7191068v-119.992593zm34.92781017 43.2047404c-21.2494395 0-38.4755138 17.1912045-38.4755138 38.3976298 0 21.2064258 17.2260743 38.3976298 38.4755138 38.3976298 21.2494396 0 38.4755139-17.191204 38.4755139-38.3976298 0-10.1836846-4.0536586-19.9502719-11.2692171-27.1512244-7.2155586-7.2009524-17.001956-11.2464054-27.2062968-11.2464054z"/><path d="m501.590869 0v26.6650207h86.70019v93.3275723h26.708941v-119.992593zm34.870006 43.2047404c-21.241355 0-38.460875 17.1912045-38.460875 38.3976298 0 21.2064258 17.21952 38.3976298 38.460875 38.3976298s38.460875-17.191204 38.460875-38.3976298c0-21.1890819-17.192391-38.3731054-38.41636-38.3976298z"/></g></g></svg>