<svg height="445" viewBox="0 0 850 445" width="850" xmlns="http://www.w3.org/2000/svg"><g fill="none" fill-rule="evenodd"><path d="m0 0h850v445h-850z" fill="#a5a6aa"/><g fill="#201910" transform="translate(129 69)"><path d="m0 233h47.9977222v11.880314h-35.7904836v11.269666h30.776966v11.88269h-30.776966v11.272042h36.802212v11.877938h-49.0094506zm111.088088 0h47.997722v11.880314h-35.790483v11.269666h30.776966v11.88269h-30.776966v11.272042h36.802211v11.877938h-49.00945zm213.19111 0h44.108505v11.880314h-31.845539v13.645729h28.044974v11.88269h-28.044974v20.773917h-12.262966zm126.450647 46.244213c13.042032 0 16.090695-6.150382 16.090695-17.200299 0-11.047558-5.197877-17.094096-15.089465-17.094096h-10.826543v34.294395zm-1.83914-46.09482c17.283651 0 30.292546 8.338181 30.292546 30.685825 0 22.342924-16.365265 27.20942-28.843957 27.20942h-21.601013v-.103844-11.696581-34.294395-11.800425h12.166251v.004721l7.278448.00236.002367.00708c.23433-.00472.456826-.014161.705358-.014161zm-377.3703658 45.991212h32.5956118v11.800425h-44.761863v-57.791401h12.1662512zm487.6013358 0h29.878325v11.800425h-42.044576v-57.791401h12.166251zm-351.421693-45.991684h12.166251v57.791401h-10.77447l-27.54212-36.222584v36.222584h-12.166251v-57.791401h12.166251l26.150339 34.839575zm317.076413-.00236h12.166252v31.65582c0 16.740083-8.705734 27.197619-25.241421 27.197619s-25.241421-11.370889-25.241421-27.197619v-.00708-31.64874h12.166251v26.827086c0 11.765024 2.674682 18.913721 13.193519 18.913721 10.521203 0 12.95682-7.915725 12.95682-18.913721zm-277.986768 34.253565h14.43618l-7.295017-16.161861zm25.040228 23.482846-5.257052-11.637579h-25.016558l-5.167106 11.689501-13.295299.00708 25.532559-57.78668h10.381552l26.188211 57.78668zm115.192622-23.482846h14.436181l-7.295017-16.161861zm25.040228 23.482846-5.257051-11.637579h-25.016558l-5.164739 11.689501-13.297666.00708 25.532559-57.78668h10.381552l26.188211 57.78668z"/><path d="m282 107v-32h-127v-30h127v-45h27v45h129v30h-129v32h129v30h-129v47h-27v-47h-127v-30z"/></g></g></svg>