<?xml version="1.0" encoding="UTF-8"?>
<svg width="850px" height="455px" viewBox="0 0 850 455" version="1.1" xmlns="http://www.w3.org/2000/svg" xmlns:xlink="http://www.w3.org/1999/xlink">
    <!-- Generator: Sketch 55.2 (78181) - https://sketchapp.com -->
    <title>spot-jack</title>
    <desc>Created with Sketch.</desc>
    <g id="spot-jack" stroke="none" stroke-width="1" fill="none" fill-rule="evenodd">
        <rect id="Rectangle-Copy-16" fill="#EEEEE8" x="0" y="0" width="850" height="455"></rect>
        <path d="M434.504918,176.573957 L434.504918,242.241466 C434.504918,270.017699 415.868852,287.357775 390.485246,287.357775 C373.937705,287.357775 357.711475,279.329962 350,263.595449 L369.118033,254.764855 C373.937705,263.11378 381.64918,266.806574 390.003279,266.806574 C403.819672,266.806574 411.209836,257.333755 411.209836,242.241466 L411.209836,197.606827 L360.92459,197.606827 L360.92459,176.573957 L434.504918,176.573957 Z M516.118033,257.654867 C516.118033,264.879899 518.527869,268.412137 524.15082,266.485461 L534.531482,281.357651 C532.434207,283.11869 528.035384,286.876106 517.403279,286.876106 C506.639344,286.876106 501.177049,281.417193 499.24918,273.389381 C494.429508,281.738306 483.344262,288 469.84918,288 C453.622951,288 440.931148,279.00885 440.931148,262.310999 C440.931148,245.613148 455.55082,236.140329 475.311475,236.140329 C481.255738,236.140329 487.842623,237.103666 494.429508,239.351454 L494.429508,237.264223 C494.429508,227.630847 488.806557,222.171934 475.15082,222.171934 C464.386885,222.171934 455.711475,225.543616 447.518033,230.841972 L447.518033,210.130215 C456.032787,205.63464 466.957377,202.744627 479.488525,202.744627 C502.783607,202.744627 516.118033,212.699115 516.118033,235.979772 L516.118033,257.654867 Z M474.829508,271.302149 C485.272131,271.302149 494.429508,263.756005 494.429508,252.035398 C488.967213,249.787611 483.022951,248.824273 478.363934,248.824273 C467.6,248.824273 462.137705,252.83818 462.137705,260.384324 C462.137705,267.769912 467.278689,271.302149 474.829508,271.302149 Z M576.685246,223.295828 C562.22623,223.295828 553.068852,231.323641 553.068852,244.970923 C553.068852,258.618205 561.904918,267.288243 576.685246,267.288243 C585.360656,267.288243 592.75082,264.39823 600.622951,258.778761 L600.622951,280.935525 C593.554098,285.4311 584.236066,288 574.596721,288 C547.445902,288 529.77377,269.214918 529.77377,244.970923 C529.77377,220.887484 547.445902,202.744627 574.596721,202.744627 C584.236066,202.744627 593.554098,205.152971 600.622951,209.809102 L600.622951,231.80531 C592.590164,226.185841 585.360656,223.295828 576.685246,223.295828 Z M666.170492,285.752212 L642.072131,252.83818 L632.914754,252.83818 L632.914754,285.752212 L610.422951,285.752212 L610.422951,161 L632.914754,161 L632.914754,234.213654 L642.714754,234.213654 L666.170492,204.35019 L691.393443,204.35019 L661.35082,242.562579 L693,285.752212 L666.170492,285.752212 Z" id="Jack" fill="#4D095E" fill-rule="nonzero"></path>
        <polygon id="Triangle-Copy-3" fill="#4D095E" style="mix-blend-mode: multiply;" points="238.5 247.285714 273.826923 318 203.173077 318"></polygon>
        <ellipse id="Oval-Copy-10" fill="#00CBD6" opacity="0.955287388" style="mix-blend-mode: multiply;" cx="238.5" cy="183.785714" rx="41.75" ry="41.7857143"></ellipse>
        <ellipse id="Oval-Copy-11" fill="#F10053" opacity="0.955287388" style="mix-blend-mode: multiply;" cx="275.25" cy="244.071429" rx="41.75" ry="41.7857143"></ellipse>
        <ellipse id="Oval-Copy-12" fill="#FFC200" opacity="0.955287388" style="mix-blend-mode: multiply;" cx="201.75" cy="244.071429" rx="41.75" ry="41.7857143"></ellipse>
    </g>
</svg>