<?xml version="1.0" encoding="UTF-8" standalone="no"?>
<svg width="825px" height="445px" viewBox="0 0 825 445" version="1.1" xmlns="http://www.w3.org/2000/svg" xmlns:xlink="http://www.w3.org/1999/xlink" xmlns:sketch="http://www.bohemiancoding.com/sketch/ns">
    <title>spot-manner</title>
    <description>Created with Sketch (http://www.bohemiancoding.com/sketch)</description>
    <defs></defs>
    <g id="Page-1" stroke="none" stroke-width="1" fill="none" fill-rule="evenodd" sketch:type="MSPage">
        <g id="spot-manner" sketch:type="MSArtboardGroup">
            <rect id="Rectangle-1" fill="#B0B8C1" sketch:type="MSShapeGroup" x="0" y="0" width="825" height="445"></rect>
            <path d="M441.3343,141.095922 L468.520016,147.653695 L468.497228,149.130307 L469.091694,149.38839 L469.465347,231.775766 L423.188119,232.984 L423.226767,136.728 L431.77707,138.790515 L432.08729,137.809727 L432.975885,137.035188 L434.800715,132.153221 L434.577319,130.645891 L434.800715,127.213554 L435.23398,126.533105 L435.015977,126.074582 L432.08729,122.142652 L430.59185,117.908555 L428.186142,115.396437 L424.236937,115.032335 L420.89552,114.435507 L419.275696,115.677021 L416.698488,117.406507 L417.152681,121.807545 L417.650316,125.236107 L417.876371,128.593269 L419.729887,135.791797 L418.181438,137.082378 L422.811881,136.728 L422.774563,232.984 L382.178218,232.653523 L383.277839,141.165435 L383.671698,141.165435 L383.671698,139.723481 L416.898544,137.18056 L416.491181,135.963526 L416.698488,133.225167 L415.688298,128.226732 L414.624989,126.533104 L414.356216,124.099234 L413.139539,120.941232 L412.101754,121.973095 L411.273632,128.379312 L411.68856,129.683658 L410.612133,131.063159 L410.55748,131.826357 L411.68856,133.394519 L411.255354,134.257331 L411.527231,135.556118 L408.097118,136.513353 L407.241158,136.182905 L407.750888,134.005337 L407.610888,133.075151 L408.48794,131.189142 L408.740713,130.353462 L408.334579,129.683658 L408.334579,128.806592 L409.147,127.323377 L409.774423,121.658506 L409.596082,120.583627 L409.596082,119.094872 L411.084228,117.178474 L410.86817,116.420546 L408.097118,116.420546 L406.296418,115.936714 L405.796287,115.20673 L405.914737,114.597324 L409.343671,115.032334 L410.020184,114.135761 L409.908208,112.370089 L408.919751,112.370089 L409.774423,110.837364 L409.774423,110.26053 L408.48794,108.481862 L407.241158,102.314041 L407.383792,100.061085 L407.750888,97.8780851 L408.334579,97.1049874 L407.610889,93.5990974 L407.241158,89.9510245 L406.556792,88.5401568 L406.798023,87.6727762 L406.296418,85.2097273 L405.914737,85.1083791 L404.150055,86.1387052 L403.376352,87.7497754 L401.165087,87.6376707 L399.997278,85.3998137 L399.485149,84.1589497 L399.485149,83.2501631 L400.664207,81.1109409 L400.905438,76.803468 L400.27325,76.3531194 L400.27325,75.3339663 L402.517723,72.507436 L400.664207,70.2543183 L400.531878,69.0801114 L400.905438,67.4355837 L401.371138,67.0972057 L403.536154,71.6009339 L403.965106,71.6084411 L405.107667,70.5204175 L405.796287,70.5204175 L407.383792,71.6009338 L407.383792,70.5204175 L406.556792,69.0801114 L407.241158,66.2961133 L407.610888,66.2961132 L408.487941,68.3579488 L408.487941,70.2543183 L408.919751,72.2465585 L411.904035,77.6470968 L412.385034,79.2251491 L417.168699,85.2097272 L419.367099,75.0730435 L420.362804,74.8392718 L420.362804,74.2679942 L423.436345,72.6983115 L423.864701,71.9772351 L423.611091,71.6009339 L422.807718,71.6009339 L422.296461,70.5204175 L421.84018,67.961889 L421.337462,66.7173316 L421.09822,64.3618299 L422.180728,63.1837531 L423.029368,62.46083 L424.095951,62.46083 L424.852263,63.0004241 L425.353204,63.0004241 L425.353204,62.287234 L425.840464,61.904 L426.727719,61.904 L427.737471,62.8111571 L427.737471,63.6650862 L428.532008,64.9862268 L428.753767,65.9038122 L428.303049,67.7134554 L427.575487,68.5881326 L427.850695,70.2543182 L428.532008,71.977235 L430.857262,71.8372128 L432.08729,72.5074358 L433.314172,73.4952105 L433.955564,78.0661917 L434.162162,83.9258335 L433.836667,84.5533807 L431.35606,85.3998145 L431.35606,86.1387059 L431.826872,86.4371086 L431.707212,87.402382 L432.661224,89.3875689 L432.975885,91.7016831 L432.975885,93.3274182 L433.494812,93.3274174 L433.494812,92.1095826 L433.618508,91.1276891 L434.574978,90.1560759 L434.800715,92.2907751 L437.257629,93.5990974 L437.257629,94.2807417 L436.002011,95.2904441 L437.559262,95.5706903 L441.107044,97.1049858 L444.304293,100.174927 L445.153915,101.604045 L446.695867,103.371649 L447.848513,106.529372 L448.019802,112.240571 L447.202325,119.44285 L446.448978,129.397485 L443.995624,129.397483 L442.676495,125.236107 L441.830735,117.909494 L441.394152,118.040742 L439.377912,124.099233 L438.771066,125.82539 L439.377911,126.251974 L439.377911,128.226733 L439.816313,129.397484 L440.113773,130.198667 L439.816313,130.645891 L440.986521,137.275166 L441.394152,137.809727 L441.830734,140.468629 L441.3343,141.095922 L441.3343,141.095922 Z M439.066985,140.548997 L434.815287,139.523398 L435.015977,137.809727 L437.403031,132.441738 L437.812299,132.441738 L438.887717,137.809727 L438.887717,138.867878 L438.887717,139.985666 L439.066985,140.548997 L439.066985,140.548997 Z" id="Outer-Shape" fill="#2F3A3A" sketch:type="MSShapeGroup"></path>
            <g id="manner-+-manner" sketch:type="MSLayerGroup" transform="translate(216.000000, 268.000000)">
                <path d="M62.8133626,45.75 L54.6813205,45.75 L54.4780194,11.5017062 L33.538011,39.8614594 L12.6657695,11.2309687 L12.4624684,11.5017062 L12.4624684,45.75 L4.33042632,45.75 L4.33042632,4.12410937 L16.5284895,4.12410937 L33.538011,27.6782719 L50.6152994,4.12410937 L62.8133626,4.12410937 L62.8133626,45.75 Z M135.397139,45.75 L126.451892,45.75 L121.640434,36.8156625 L93.6526559,36.8156625 L88.8411976,45.75 L79.8959513,45.75 L102.597902,4.12410937 L112.695188,4.12410937 L135.397139,45.75 Z M117.574413,29.4380656 L107.680429,11.0279156 L97.7186769,29.4380656 L117.574413,29.4380656 Z M201.068679,45.75 L188.938383,45.75 L160.61177,11.0279156 L160.61177,45.75 L152.479727,45.75 L152.479727,4.12410937 L164.610024,4.12410937 L192.936637,38.8461938 L192.936637,4.12410937 L201.068679,4.12410937 L201.068679,45.75 Z M272.974785,45.75 L260.844489,45.75 L232.517876,11.0279156 L232.517876,45.75 L224.385833,45.75 L224.385833,4.12410937 L236.51613,4.12410937 L264.842743,38.8461938 L264.842743,4.12410937 L272.974785,4.12410937 L272.974785,45.75 Z M341.153705,45.75 L296.291939,45.75 L296.291939,4.12410937 L339.595064,4.12410937 L339.595064,11.5017062 L304.423982,11.5017062 L304.423982,20.4360437 L328.887875,20.4360437 L328.887875,27.8136406 L304.423982,27.8136406 L304.423982,38.3724031 L341.153705,38.3724031 L341.153705,45.75 Z M409.806994,45.75 L400.455146,45.75 L389.544656,30.4533312 L368.875716,30.4533312 L368.875716,45.75 L360.743673,45.75 L360.743673,4.12410937 L394.423881,4.12410937 C398.851349,4.12410937 402.375198,5.31985471 404.995536,7.71138125 C407.615874,10.1029078 408.926023,13.3066028 408.926023,17.3225625 C408.926023,24.2264033 405.46994,28.4453538 398.557669,29.9795406 L409.806994,45.75 Z M393.204075,23.0757344 C398.128503,23.0757344 400.59068,21.2031521 400.59068,17.4579312 C400.59068,13.4870947 397.970381,11.5017062 392.729706,11.5017062 L368.875716,11.5017062 L368.875716,23.0757344 L393.204075,23.0757344 Z" id="manner" fill="#929292" sketch:type="MSShapeGroup"></path>
                <path d="M397.905259,15.130932 C397.905259,18.938663 395.436953,20.8425 390.500266,20.8425 L366.111345,20.8425 L366.111345,18.9972064 L364.289605,18.9972064 L364.289605,7.23 L388.202976,7.23 C391.894243,7.23 394.288748,8.22643989 395.386517,10.2193407 C397.065683,11.2113712 397.905259,12.8485647 397.905259,15.130932 Z M398.093501,43.53 L407.444836,43.53 L396.196128,27.7163 C403.10802,26.1779067 406.563913,21.9473883 406.563913,15.0246181 C406.563913,10.9976472 405.253836,7.78516802 402.633642,5.38708421 C402.451876,5.22072657 402.265763,5.06013921 402.075301,4.90532213 C401.696082,4.43415352 401.276491,3.98808222 400.816525,3.56710772 C398.196331,1.16902392 394.672675,-0.03 390.245451,-0.03 L356.56709,-0.03 L356.56709,41.7100235 L358.384207,43.53 L366.515803,43.53 L366.515803,28.1913897 L386.660987,28.1913897 L396.276384,41.7100235 L398.093501,43.53 Z M293.88289,43.53 L338.850733,43.53 L338.850733,36.1321747 L337.02922,34.3121982 L302.034161,34.3121982 L302.034161,25.5444614 L326.5559,25.5444614 L326.5559,18.1466361 L324.734387,16.3266596 L302.034161,16.3266596 L302.034161,9.1878018 L337.288406,9.1878018 L337.288406,1.7899765 L335.466893,-0.03 L292.061377,-0.03 L292.061377,41.7100235 L293.88289,43.53 Z M258.122167,43.53 L270.256629,43.53 L270.256629,1.7899765 L268.438789,-0.03 L260.303954,-0.03 L260.303954,34.3736569 L233.785452,1.7899765 L231.967611,-0.03 L219.833149,-0.03 L219.833149,41.7100235 L221.650989,43.53 L229.785824,43.53 L229.785824,9.12634313 L256.304326,41.7100235 L258.122167,43.53 Z M186.348204,43.53 L198.482666,43.53 L198.482666,1.7899765 L196.664826,-0.03 L188.529991,-0.03 L188.529991,34.3736569 L162.011489,1.7899765 L160.193649,-0.03 L148.059186,-0.03 L148.059186,41.7100235 L149.877027,43.53 L158.011862,43.53 L158.011862,9.12634313 L184.530364,41.7100235 L186.348204,43.53 Z M105.397913,8.60862362 L115.352064,27.195 L95.3755827,27.195 L93.5473159,25.3626264 L103.569646,6.77625 L105.397913,8.60862362 Z M123.681542,43.53 L132.614156,43.53 L109.944263,1.7899765 L108.129613,-0.03 L98.0465858,-0.03 L75.3766924,41.7100235 L77.1913424,43.53 L86.1239571,43.53 L90.9286211,34.5711657 L118.038289,34.5711657 L121.866892,41.7100235 L123.681542,43.53 Z M52.2380844,43.53 L60.3859281,43.53 L60.3859281,1.7899765 L58.5651809,-0.03 L46.3434154,-0.03 L29.4872017,23.2377754 L14.0111178,1.7899765 L12.1903706,-0.03 L-0.0313949418,-0.03 L-0.0313949418,41.7100235 L1.78935225,43.53 L9.93719593,43.53 L9.93719593,9.31622562 L29.2329436,35.8053373 L31.0536908,37.6253137 L50.238871,11.6214694 L50.4173372,41.7100235 L52.2380844,43.53 Z M119.311712,34.5743623 L118.471927,34.5743623 L117.494472,32.753932 L89.5063203,32.753932 L84.6947979,41.715 L78.5565515,41.715 L100.268926,1.785 L109.538985,1.785 L131.25136,41.715 L123.145779,41.715 L119.311712,34.5743623 Z M96.2729094,25.38 L113.535002,25.38 L104.933413,9.49875 L96.2729094,25.38 Z M387.183621,28.1929957 L386.660998,28.1929957 L385.366501,26.3725655 L364.698647,26.3725655 L364.698647,41.715 L358.384153,41.715 L358.384153,1.785 L392.06259,1.785 C396.182703,1.785 399.52026,2.82369779 402.075347,4.90112236 C403.856356,7.11452027 404.746849,9.88163182 404.746849,13.202511 C404.746849,20.1270073 401.290947,24.3585804 394.37904,25.8973573 L405.627774,41.715 L396.79904,41.715 L387.183621,28.1929957 Z M390.027503,9.045 L366.106668,9.045 L366.106668,19.0275 L388.680893,19.0275 C393.61912,19.0275 396.088197,17.1120374 396.088197,13.2810549 C396.088197,12.0730876 395.855791,11.0447476 395.390977,10.1960331 C394.099587,9.42867603 392.311764,9.045 390.027503,9.045 Z" id="manner" fill="#CDD6D9" sketch:type="MSShapeGroup"></path>
                <path d="M135.290616,79.17125 L126.518761,79.17125 L126.518761,71.0321079 L134.985853,71.0321079 L134.985853,72.474655 L128.108825,72.474655 L128.108825,74.2215928 L132.892269,74.2215928 L132.892269,75.66414 L128.108825,75.66414 L128.108825,77.7287029 L135.290616,77.7287029 L135.290616,79.17125 Z M153.811078,73.0437333 C152.75103,72.4878866 151.598245,72.2099675 150.352688,72.2099675 C148.541773,72.2099675 147.636328,72.5320008 147.636328,73.176077 C147.636328,73.5554644 147.976422,73.8025037 148.65662,73.9172022 C149.584162,73.9966088 150.51169,74.0804257 151.439232,74.1686553 C152.773126,74.3009998 153.722739,74.5392162 154.288098,74.8833117 C154.915293,75.2626991 155.228886,75.8405945 155.228886,76.6170152 C155.228886,77.4904884 154.837999,78.1654349 154.056213,78.6418749 C153.274428,79.1183149 152.141518,79.3565313 150.657451,79.3565313 C148.563856,79.3565313 146.889888,78.8800985 145.635497,77.9272185 L146.496782,76.8022964 C147.618667,77.5875401 148.996709,77.980156 150.63095,77.980156 C151.549658,77.980156 152.260763,77.8632535 152.764286,77.629445 C153.267809,77.3956365 153.519567,77.0846318 153.519567,76.6964214 C153.519567,76.2640963 153.210391,75.9597086 152.592029,75.7832494 C152.247513,75.6861968 151.71308,75.6200256 150.988714,75.5847337 C149.857996,75.5317959 149.164558,75.4920932 148.90838,75.4656243 C147.901334,75.3685717 147.159311,75.1524124 146.68229,74.8171398 C146.205268,74.4818673 145.966761,73.9922002 145.966761,73.3481239 C145.966761,72.5717032 146.348814,71.9563108 147.112932,71.5019283 C147.87705,71.0475457 148.948125,70.8203578 150.326187,70.8203578 C152.163604,70.8203578 153.652066,71.2173852 154.791618,72.0114518 L153.811078,73.0437333 Z M174.623884,72.474655 L170.728226,72.474655 L170.728226,79.17125 L169.138162,79.17125 L169.138162,72.474655 L165.242504,72.474655 L165.242504,71.0321079 L174.623884,71.0321079 L174.623884,72.474655 Z M187.420115,79.17125 L185.366282,79.17125 L185.366282,77.7287029 L187.420115,77.7287029 L187.420115,79.17125 Z M221.042402,79.17125 L211.303257,79.17125 C211.409262,76.7978731 212.738719,75.2141751 215.291669,74.4201085 C215.344671,74.4024626 215.923272,74.2436516 217.027489,73.9436709 C217.637017,73.7760346 218.091947,73.6084009 218.392294,73.4407646 C218.851649,73.1848987 219.081322,72.8408083 219.081322,72.4084831 C219.081322,71.9585121 218.853857,71.5945703 218.39892,71.316647 C217.943982,71.0387237 217.310171,70.8997641 216.497468,70.8997641 C215.119405,70.8997641 213.86945,71.345317 212.747566,72.2364362 L211.740525,71.177686 C213.206925,70.0395239 214.80139,69.4704514 216.523969,69.4704514 C217.787193,69.4704514 218.816308,69.7571933 219.611344,70.3306859 C220.40638,70.9041784 220.803892,71.6320619 220.803892,72.5143582 C220.803892,73.7760418 219.960283,74.6450905 218.27304,75.1215305 C217.645844,75.2626979 216.722733,75.5053257 215.503677,75.8494213 C214.355292,76.2464546 213.582352,76.8728755 213.184833,77.7287029 L221.042402,77.7287029 L221.042402,79.17125 Z M242.292475,74.3804054 C242.292475,75.7391416 241.797793,76.8993437 240.808415,77.8610466 C239.819036,78.8227495 238.635334,79.3035938 237.257271,79.3035938 C235.870375,79.3035938 234.691089,78.827161 233.719378,77.874281 C232.721166,76.8949322 232.222067,75.7303186 232.222067,74.3804054 C232.222067,73.0393151 232.725582,71.8791129 233.732628,70.8997641 C234.704339,69.9557071 235.879208,69.4836857 237.257271,69.4836857 C238.653001,69.4836857 239.832287,69.9557071 240.795164,70.8997641 C241.793376,71.8791129 242.292475,73.0393151 242.292475,74.3804054 Z M240.68916,74.3804054 C240.68916,73.3569417 240.368942,72.5209786 239.728496,71.8724909 C239.08805,71.2240031 238.264317,70.8997641 237.257271,70.8997641 C236.250225,70.8997641 235.426492,71.2240031 234.786046,71.8724909 C234.1456,72.5209786 233.825382,73.3569417 233.825382,74.3804054 C233.825382,75.395046 234.147808,76.2288035 234.792671,76.8817027 C235.437534,77.5346019 236.259059,77.8610466 237.257271,77.8610466 C238.255483,77.8610466 239.077008,77.5346019 239.721871,76.8817027 C240.366733,76.2288035 240.68916,75.395046 240.68916,74.3804054 Z M256.016243,79.17125 L254.426179,79.17125 L254.426179,71.177686 L252.889117,71.8394049 L252.889117,70.4630297 C253.472143,70.2777474 253.988909,69.9865941 254.439429,69.5895607 L256.016243,69.5895607 L256.016243,79.17125 Z M269.329245,74.8039055 C270.592469,73.7010352 271.895426,73.1496083 273.238153,73.1496083 C274.55438,73.1496083 275.625454,73.4363503 276.451408,74.0098428 C277.277363,74.5833354 277.690334,75.3112188 277.690334,76.1935151 C277.690334,77.155218 277.29503,77.9183928 276.504411,78.4830624 C275.713791,79.047732 274.607383,79.3300625 273.185151,79.3300625 C271.444905,79.3300625 270.091156,78.8955381 269.123862,78.0264764 C268.156568,77.1574146 267.672928,75.9597154 267.672928,74.4333429 C267.672928,73.3392955 267.977687,72.3820185 268.587215,71.561483 C269.638429,70.149809 271.131308,69.4439826 273.065896,69.4439826 C274.832643,69.4439826 276.237186,70.0262894 277.279567,71.1909204 L276.11352,72.1173268 C275.389153,71.2967913 274.373289,70.8865297 273.065896,70.8865297 C272.27086,70.8865297 271.573006,71.0673978 270.972312,71.4291392 C269.83276,72.1173303 269.262992,73.0437274 269.262992,74.2083585 C269.262992,74.3671718 269.285076,74.5656855 269.329245,74.8039055 Z M269.68701,76.259687 C270.261202,77.3272654 271.413987,77.8610466 273.1454,77.8610466 C274.037607,77.8610466 274.746503,77.7088528 275.272111,77.4044606 C275.797718,77.1000684 276.060518,76.7096582 276.060518,76.2332182 C276.060518,75.7303094 275.79551,75.3134306 275.265485,74.9825695 C274.735461,74.6517085 274.042024,74.4862804 273.185151,74.4862804 C271.718751,74.4862804 270.552716,75.07741 269.68701,76.259687 Z" id="est.-2016" fill="#394242" sketch:type="MSShapeGroup"></path>
                <path d="M59.0587838,41.375 L50.9267417,41.375 L50.7234407,7.12670625 L29.7834322,35.4864594 L8.91119074,6.85596875 L8.70788969,7.12670625 L8.70788969,41.375 L0.575847566,41.375 L0.575847566,-0.250890625 L12.7739108,-0.250890625 L29.7834322,23.3032719 L46.8607207,-0.250890625 L59.0587838,-0.250890625 L59.0587838,41.375 Z M131.64256,41.375 L122.697314,41.375 L117.885855,32.4406625 L89.8980771,32.4406625 L85.0866189,41.375 L76.1413725,41.375 L98.8433235,-0.250890625 L108.940609,-0.250890625 L131.64256,41.375 Z M113.819834,25.0630656 L103.92585,6.65291562 L93.9640982,25.0630656 L113.819834,25.0630656 Z M197.3141,41.375 L185.183804,41.375 L156.857191,6.65291562 L156.857191,41.375 L148.725149,41.375 L148.725149,-0.250890625 L160.855445,-0.250890625 L189.182058,34.4711938 L189.182058,-0.250890625 L197.3141,-0.250890625 L197.3141,41.375 Z M269.220206,41.375 L257.08991,41.375 L228.763297,6.65291562 L228.763297,41.375 L220.631255,41.375 L220.631255,-0.250890625 L232.761551,-0.250890625 L261.088164,34.4711938 L261.088164,-0.250890625 L269.220206,-0.250890625 L269.220206,41.375 Z M337.399126,41.375 L292.537361,41.375 L292.537361,-0.250890625 L335.840485,-0.250890625 L335.840485,7.12670625 L300.669403,7.12670625 L300.669403,16.0610437 L325.133296,16.0610437 L325.133296,23.4386406 L300.669403,23.4386406 L300.669403,33.9974031 L337.399126,33.9974031 L337.399126,41.375 Z M406.052416,41.375 L396.700567,41.375 L385.790077,26.0783312 L365.121137,26.0783312 L365.121137,41.375 L356.989095,41.375 L356.989095,-0.250890625 L390.669303,-0.250890625 C395.09677,-0.250890625 398.62062,0.944854709 401.240957,3.33638125 C403.861295,5.72790779 405.171444,8.93160284 405.171444,12.9475625 C405.171444,19.8514033 401.715361,24.0703538 394.803091,25.6045406 L406.052416,41.375 Z M389.449496,18.7007344 C394.373924,18.7007344 396.836101,16.8281521 396.836101,13.0829312 C396.836101,9.11209473 394.215803,7.12670625 388.975127,7.12670625 L365.121137,7.12670625 L365.121137,18.7007344 L389.449496,18.7007344 Z" id="manner" fill="#394242" sketch:type="MSShapeGroup"></path>
            </g>
        </g>
    </g>
</svg>