<?xml version="1.0" encoding="UTF-8" standalone="no"?>
<svg width="825px" height="445px" viewBox="0 0 825 445" version="1.1" xmlns="http://www.w3.org/2000/svg" xmlns:xlink="http://www.w3.org/1999/xlink" xmlns:sketch="http://www.bohemiancoding.com/sketch/ns">
    <title>reseptirosvo</title>
    <description>Created with Sketch (http://www.bohemiancoding.com/sketch)</description>
    <defs>
        <linearGradient x1="50.064082%" y1="0.180625%" x2="50.064082%" y2="100.18082%" id="linearGradient-1">
            <stop stop-color="#FFFFFF" offset="0%"></stop>
            <stop stop-color="#1F1E21" offset="100%"></stop>
        </linearGradient>
    </defs>
    <g id="Page-1" stroke="none" stroke-width="1" fill="none" fill-rule="evenodd" sketch:type="MSPage">
        <g id="reseptirosvo" sketch:type="MSArtboardGroup">
            <g id="logo" sketch:type="MSLayerGroup" transform="translate(-6.000000, -1.000000)">
                <g id="Group" sketch:type="MSShapeGroup">
                    <rect id="Rectangle" fill="#00B2D1" x="4" y="0" width="830" height="446"></rect>
                    <rect id="Rectangle" opacity="0.0393465909" fill="url(#linearGradient-1)" x="0" y="0" width="830" height="446"></rect>
                </g>
                <g id="Group-+-Group" transform="translate(163.000000, 63.000000)" sketch:type="MSShapeGroup">
                    <g id="Group" transform="translate(0.000000, 230.000000)" fill="#FFFFFF">
                        <path d="M48.7628299,32.2935 C48.7628299,38.6835 46.6026984,43.9935 42.7282721,47.7735 L49.4833741,63.432 C49.4833741,63.432 48.942966,69.912 39.035483,69.912 C30.9308617,69.912 28.1372517,68.382 24.4444626,53.892 C22.1026939,53.892 20.3013333,53.712 20.3013333,53.712 L20.3013333,64.5105 C20.3013333,68.3805 17.4191565,69.9105 9.94501134,69.9105 C2.73956916,69.9105 -0.502879819,68.1105 -0.502879819,64.5105 L-0.502879819,18.7035 C-0.502879819,11.4135 5.1714059,9.5235 21.1119456,9.5235 C39.6674603,9.525 48.7628299,18.7035 48.7628299,32.2935 L48.7628299,32.2935 Z M29.0394331,32.7435 C29.0394331,27.4335 25.8870522,25.1835 20.2142676,25.1835 L20.2142676,41.2035 C20.2142676,41.2035 21.0233787,41.2935 21.8339909,41.2935 C27.1480045,41.2935 29.0394331,37.2435 29.0394331,32.7435 L29.0394331,32.7435 Z" id="Shape"></path>
                        <path d="M68.7609342,48.852 C69.4814785,53.532 71.8232472,56.682 78.3982132,56.682 C83.8923628,56.682 88.5759002,54.072 88.5759002,54.072 C88.5759002,54.072 92.2686893,55.512 92.2686893,60.192 C92.2686893,65.412 87.4935828,70.542 74.1650159,70.542 C58.2229751,70.542 50.5671927,60.192 50.5671927,46.6935 C50.5671927,28.425 60.2044717,19.515 74.2535828,19.515 C86.5929025,19.515 93.4365714,26.445 93.4365714,37.9635 C93.4365714,44.7135 90.9146667,48.1335 90.9146667,48.1335 L68.7609342,48.852 L68.7609342,48.852 Z M68.6708662,40.6635 L78.0364399,39.9435 C78.0364399,39.9435 78.216576,39.0435 78.216576,37.6935 C78.216576,35.0835 76.5953515,33.7335 74.4337188,33.7335 C71.282839,33.7335 69.2112744,35.4435 68.6708662,40.6635 L68.6708662,40.6635 Z" id="Shape"></path>
                        <path d="M134.327456,22.1235 C134.327456,22.1235 137.840109,35.8935 127.75249,35.8935 C123.879565,35.8935 120.997388,34.5435 117.214531,34.5435 C113.61181,34.5435 112.260789,35.4435 112.260789,37.6035 C112.260789,44.3535 136.127315,33.2835 136.127315,52.542 C136.127315,61.632 130.633166,70.542 113.071401,70.542 C100.551946,70.542 95.418068,66.762 95.418068,60.552 C95.418068,55.332 99.2009252,54.072 99.2009252,54.072 C99.2009252,54.072 104.154667,57.402 112.981333,57.402 C117.664871,57.402 118.835755,56.052 118.835755,53.982 C118.835755,47.592 95.7798413,58.032 95.7798413,37.6035 C95.7798413,26.8035 103.16542,19.5135 118.835755,19.5135 C129.824054,19.5135 134.327456,22.1235 134.327456,22.1235 L134.327456,22.1235 Z" id="Shape"></path>
                        <path d="M156.213986,48.852 C156.934531,53.532 159.276299,56.682 165.851265,56.682 C171.345415,56.682 176.028952,54.072 176.028952,54.072 C176.028952,54.072 179.721741,55.512 179.721741,60.192 C179.721741,65.412 174.946635,70.542 161.618068,70.542 C145.676027,70.542 138.020245,60.192 138.020245,46.6935 C138.020245,28.425 147.657524,19.515 161.706635,19.515 C174.045955,19.515 180.889624,26.445 180.889624,37.9635 C180.889624,44.7135 178.367719,48.1335 178.367719,48.1335 L156.213986,48.852 L156.213986,48.852 Z M156.12542,40.6635 L165.490993,39.9435 C165.490993,39.9435 165.671129,39.0435 165.671129,37.6935 C165.671129,35.0835 164.049905,33.7335 161.888272,33.7335 C158.737392,33.7335 156.665828,35.4435 156.12542,40.6635 L156.12542,40.6635 Z" id="Shape"></path>
                        <path d="M184.85712,24.3735 C184.85712,20.9535 187.467592,19.5135 194.314263,19.5135 C200.79766,19.5135 203.769905,21.1335 203.769905,24.3735 L203.769905,26.8935 C205.032358,22.3035 208.99385,19.5135 214.758204,19.5135 C224.395483,19.5135 230.068268,27.6135 230.068268,44.082 C230.068268,62.4405 220.430989,69.9105 209.984599,69.9105 C207.372626,69.9105 205.301061,69.5505 203.768404,68.8305 L203.768404,77.5605 C203.768404,80.8005 201.157932,82.2405 194.40283,82.2405 C187.827864,82.2405 184.85712,80.7105 184.85712,77.5605 L184.85712,24.3735 L184.85712,24.3735 Z M205.931537,34.9035 C204.760653,34.9035 203.769905,35.2635 203.769905,35.2635 L203.769905,58.5735 C209.175488,59.7435 212.057664,52.9935 212.057664,45.4335 C212.056163,36.8835 209.893029,34.9035 205.931537,34.9035 L205.931537,34.9035 Z" id="Shape"></path>
                        <path d="M252.406639,70.542 C241.419841,70.542 235.925692,63.522 235.925692,53.3535 L235.925692,34.9035 C229.080522,34.9035 231.512358,23.7435 231.512358,23.7435 C236.01576,19.9635 236.556168,18.3435 238.177392,12.9435 C238.177392,12.9435 240.609229,10.6035 246.373583,10.6035 C252.046367,10.6035 254.478204,12.3135 254.478204,15.8235 L254.478204,20.6835 L261.413442,20.6835 C264.475755,20.6835 265.376435,24.1935 265.376435,28.3335 C265.376435,32.1135 263.304871,34.9035 263.304871,34.9035 L254.478204,34.9035 L254.478204,53.262 C254.478204,58.032 263.124735,55.692 263.124735,55.692 C263.124735,55.692 264.926095,57.582 264.926095,61.542 C264.924594,67.842 261.321873,70.542 252.406639,70.542 L252.406639,70.542 Z" id="Shape"></path>
                        <path d="M268.438748,9.075 C268.438748,3.315 271.501061,0.345 278.706503,0.345 C285.911946,0.345 288.974259,3.315 288.974259,9.075 C288.974259,14.835 285.911946,17.625 278.706503,17.625 C271.501061,17.625 268.438748,14.835 268.438748,9.075 L268.438748,9.075 Z M288.163646,65.052 C288.163646,68.562 285.551673,69.912 278.706503,69.912 C272.221605,69.912 269.249361,68.292 269.249361,65.052 L269.249361,25.3635 C269.249361,22.1235 271.771265,20.6835 278.614934,20.6835 C285.1899,20.6835 288.162145,22.2135 288.162145,25.3635 L288.162145,65.052 L288.163646,65.052 Z" id="Shape"></path>
                        <path d="M312.750717,25.7235 C314.191805,22.2135 317.254118,20.1435 321.397247,20.1435 C325.720512,20.1435 327.700508,21.9435 327.700508,21.9435 C327.700508,21.9435 328.602689,24.3735 328.602689,27.9735 C328.602689,35.8035 325.270172,39.2235 319.325683,39.2235 C316.1718,39.2235 313.651397,38.0535 312.750717,37.5135 L312.750717,65.052 C312.750717,68.562 310.138744,69.912 303.293574,69.912 C296.808676,69.912 293.836431,68.292 293.836431,65.052 L293.836431,25.3635 C293.836431,22.1235 296.358336,20.6835 303.203506,20.6835 C309.776971,20.6835 312.749215,22.2135 312.749215,25.3635 L312.749215,25.7235 L312.750717,25.7235 Z" id="Shape"></path>
                        <path d="M374.445814,44.7135 C374.445814,58.752 367.151805,70.542 351.029628,70.542 C334.907451,70.542 328.242417,59.202 328.242417,44.9835 C328.242417,29.1435 336.347039,19.515 352.29058,19.515 C367.061737,19.5135 374.445814,30.5835 374.445814,44.7135 L374.445814,44.7135 Z M351.211265,33.9135 C348.148952,33.9135 346.436159,36.7035 346.436159,45.1635 C346.436159,55.1535 348.148952,57.1335 351.3899,57.1335 C354.182009,57.1335 355.984871,54.8835 355.984871,45.0735 C355.984871,36.2535 354.272077,33.9135 351.211265,33.9135 L351.211265,33.9135 Z" id="Shape"></path>
                        <path d="M415.3382,22.1235 C415.3382,22.1235 418.850853,35.8935 408.763234,35.8935 C404.890308,35.8935 402.008132,34.5435 398.225274,34.5435 C394.622553,34.5435 393.271533,35.4435 393.271533,37.6035 C393.271533,44.3535 417.138059,33.2835 417.138059,52.542 C417.138059,61.632 411.643909,70.542 394.082145,70.542 C381.562689,70.542 376.428812,66.762 376.428812,60.552 C376.428812,55.332 380.211669,54.072 380.211669,54.072 C380.211669,54.072 385.16541,57.402 393.992077,57.402 C398.675615,57.402 399.846499,56.052 399.846499,53.982 C399.846499,47.592 376.790585,58.032 376.790585,37.6035 C376.790585,26.8035 384.176163,19.5135 399.846499,19.5135 C410.834798,19.5135 415.3382,22.1235 415.3382,22.1235 L415.3382,22.1235 Z" id="Shape"></path>
                        <path d="M441.638063,59.112 C441.638063,59.112 445.961329,33.0135 445.961329,22.6635 C445.961329,22.6635 448.304599,19.5135 455.328404,19.5135 C461.723234,19.5135 464.15507,21.9435 464.15507,25.8135 C464.15507,31.4835 457.850308,53.172 453.527043,63.792 C452.085955,67.302 448.213029,70.4505 441.367859,70.4505 C433.622009,70.4505 430.559696,66.1305 430.559696,66.1305 L417.141061,23.922 C417.141061,23.922 419.03249,19.602 425.787592,19.602 C431.461878,19.602 435.244735,21.132 436.685823,26.532 C440.377111,39.4035 441.638063,59.112 441.638063,59.112 L441.638063,59.112 Z" id="Shape"></path>
                        <path d="M509.999696,44.7135 C509.999696,58.752 502.705687,70.542 486.58351,70.542 C470.461333,70.542 463.796299,59.202 463.796299,44.9835 C463.796299,29.1435 471.900921,19.515 487.844463,19.515 C502.615619,19.5135 509.999696,30.5835 509.999696,44.7135 L509.999696,44.7135 Z M486.765147,33.9135 C483.702834,33.9135 481.990041,36.7035 481.990041,45.1635 C481.990041,55.1535 483.702834,57.1335 486.943782,57.1335 C489.735891,57.1335 491.538753,54.8835 491.538753,45.0735 C491.537252,36.2535 489.825959,33.9135 486.765147,33.9135 L486.765147,33.9135 Z" id="Shape"></path>
                    </g>
                    <g id="Group" transform="translate(159.000000, 0.000000)">
                        <ellipse id="Oval" stroke="#FFFFFF" stroke-width="10" fill="#283545" cx="96.1508652" cy="96.1047825" rx="96.1508652" ry="96.1047825"></ellipse>
                        <g transform="translate(17.348315, 99.705000)">
                            <ellipse id="Oval" fill="#FFFFFF" transform="translate(32.064022, 27.376067) rotate(24.999240) translate(-32.064022, -27.376067) " cx="31.7213983" cy="26.9837552" rx="25.6794633" ry="18.0311661"></ellipse>
                            <path d="M31.652,26.179065 L111.887955,63.5749425" id="Shape" stroke="#FFFFFF" stroke-width="8.1476325" stroke-linecap="round"></path>
                        </g>
                        <g transform="translate(58.550562, 104.040000)" id="Shape">
                            <g transform="translate(0.000000, 5.502500)">
                                <path d="M57.5855618,27.118375 C53.4089551,18.1687675 59.9536067,6.726535 71.9347865,1.1408875 C83.9137978,-4.440425 69.5168652,10.6605475 73.6913034,19.610155 C77.8679101,28.5597625 98.6056517,27.2592625 86.6244719,32.840575 C74.6432921,38.42839 61.7578315,36.0679825 57.5855618,27.118375 L57.5855618,27.118375 Z" fill="#FFFFFF"></path>
                                <path d="M80.7065281,16.341565 L0.468404494,53.7374425" stroke="#FFFFFF" stroke-width="8.1476325" stroke-linecap="round" stroke-linejoin="round"></path>
                            </g>
                            <path d="M72.7024494,10.7746425 L95.977382,-0.0715275" stroke="#FFFFFF" stroke-width="8.1476325" stroke-linecap="round" stroke-linejoin="round"></path>
                            <path d="M69.9679213,26.8488225 L102.708528,11.587455" stroke="#FFFFFF" stroke-width="8.1476325" stroke-linecap="round" stroke-linejoin="round"></path>
                            <path d="M84.0439101,35.0853225 L107.314506,24.2391525" stroke="#FFFFFF" stroke-width="8.1476325" stroke-linecap="round" stroke-linejoin="round"></path>
                        </g>
                        <path d="M120.336584,94.0153125 C120.336584,79.837695 108.841157,71.713905 94.6567416,71.713905 C80.4723258,71.713905 68.9768989,79.837695 68.9768989,94.0153125 C68.9768989,103.723545 74.3743933,113.752568 82.3329326,119.110628 C82.2548652,119.622158 82.1984831,120.14019 82.1984831,120.671228 C82.1984831,126.909293 87.7737978,128.300828 94.654573,128.300828 C101.53318,128.300828 107.110663,126.91146 107.110663,120.671228 C107.110663,120.14019 107.056449,119.622158 106.976213,119.110628 C114.93909,113.754735 120.336584,103.725713 120.336584,94.0153125 L120.336584,94.0153125 Z M76.3759551,90.26337 C76.3759551,86.0042325 79.8347753,82.54707 84.1002921,82.54707 C88.3593034,82.54707 91.8159551,86.002065 91.8159551,90.26337 C91.8159551,94.524675 88.3593034,97.97967 84.1002921,97.97967 C79.8326067,97.97967 76.3759551,94.5225075 76.3759551,90.26337 L76.3759551,90.26337 Z M89.1161236,118.011705 C89.1161236,121.785323 89.1855169,124.845833 86.8174719,124.845833 C84.4472584,124.845833 84.5166517,121.785323 84.5166517,118.011705 C84.5166517,114.242423 84.341,111.186248 86.8174719,111.186248 C89.2917753,111.186248 89.1161236,114.242423 89.1161236,118.011705 L89.1161236,118.011705 Z M88.9795056,104.085518 C88.4720674,103.153493 89.3286404,101.705603 90.8943258,100.853775 C92.4578427,99.99978 94.1384607,100.064805 94.6458989,100.99683 C95.1555056,101.928855 94.2989326,103.376745 92.7332472,104.23074 C91.1697303,105.0804 89.4891124,105.017543 88.9795056,104.085518 L88.9795056,104.085518 Z M97.0855056,119.49861 C97.0855056,123.267893 97.159236,126.328403 94.7890225,126.328403 C92.4231461,126.328403 92.4903708,123.267893 92.4903708,119.49861 C92.4903708,115.724993 92.3147191,112.670985 94.7890225,112.670985 C97.2654944,112.668818 97.0855056,115.724993 97.0855056,119.49861 L97.0855056,119.49861 Z M96.7320337,104.02266 C95.6651124,102.598613 95.4872921,100.925303 96.3373596,100.290225 C97.1895955,99.65298 98.7422697,100.29456 99.8135281,101.722943 C100.878281,103.149158 101.056101,104.822468 100.206034,105.457545 C99.3559663,106.092623 97.7989551,105.448875 96.7320337,104.02266 L96.7320337,104.02266 Z M104.78382,118.499393 C104.78382,122.270843 104.855382,125.331353 102.485169,125.331353 C100.114955,125.331353 100.188685,122.270843 100.188685,118.499393 C100.188685,114.73011 100.013034,111.6696 102.485169,111.6696 C104.965978,111.671768 104.78382,114.73011 104.78382,118.499393 L104.78382,118.499393 Z M104.78382,97.628535 C100.689618,97.628535 97.3674157,94.307925 97.3674157,90.2135175 C97.3674157,86.11911 100.689618,82.7985 104.78382,82.7985 C108.88236,82.7985 112.20673,86.1212775 112.20673,90.2135175 C112.20673,94.307925 108.88236,97.628535 104.78382,97.628535 L104.78382,97.628535 Z" id="Shape" fill="#FFFFFF"></path>
                        <path d="M123.012562,33.8411775 C123.012562,27.3690225 114.394787,22.12584 103.768944,22.12584 C97.2177865,22.12584 91.4364607,25.0497975 87.9646292,28.2360225 C88.7886742,26.0338425 90.6167528,24.0657525 93.1582809,22.528995 C90.3153258,21.5644575 87.0386629,21.0052425 83.5364719,21.0052425 C72.7436517,21.0052425 63.995764,26.239755 63.995764,32.7010725 C63.995764,37.0707525 68.0053933,40.874715 73.9320112,42.88182 C74.0729663,47.0282475 74.1835618,51.5019675 74.1835618,55.42731 C74.1835618,66.5010675 73.311809,81.9770175 73.311809,81.9770175 L114.303708,81.9770175 C114.303708,81.9770175 112.679472,65.3956425 112.679472,54.69036 C112.679472,51.3892575 112.833438,47.66766 113.048124,44.1021225 C118.985584,42.1080225 123.012562,38.26071 123.012562,33.8411775 L123.012562,33.8411775 Z" id="Shape" fill="#FFFFFF"></path>
                    </g>
                </g>
            </g>
        </g>
    </g>
</svg>